<svg xmlns="http://www.w3.org/2000/svg" width="375" viewBox="0 0 375 225" height="225" version="1.0"><defs><clipPath id="a"><path d="M 22.5 74 L 150.75 74 L 150.75 202.5 L 22.5 202.5 Z M 22.5 74"/></clipPath><clipPath id="b"><path d="M 29 22.5 L 80 22.5 L 80 73 L 29 73 Z M 29 22.5"/></clipPath></defs><g fill="#44301F"><g><g><path d="M 0.234375 -37.953125 C 0.234375 -38.929688 0.90625 -39.78125 2.25 -40.5 C 3.59375 -41.226562 4.929688 -41.59375 6.265625 -41.59375 C 6.941406 -41.59375 7.453125 -41.46875 7.796875 -41.21875 C 8.140625 -40.96875 8.476562 -40.539062 8.8125 -39.9375 L 16.78125 -25.3125 L 24.6875 -39.9375 C 25.257812 -41.039062 26.113281 -41.59375 27.25 -41.59375 C 28.570312 -41.59375 29.90625 -41.226562 31.25 -40.5 C 32.601562 -39.78125 33.28125 -38.929688 33.28125 -37.953125 C 33.28125 -37.679688 33.242188 -37.472656 33.171875 -37.328125 L 21.453125 -17.8125 C 21.296875 -17.582031 21.21875 -17.316406 21.21875 -17.015625 L 21.21875 -2.734375 C 21.21875 -1.859375 20.78125 -1.179688 19.90625 -0.703125 C 19.039062 -0.234375 18 0 16.78125 0 C 15.570312 0 14.53125 -0.234375 13.65625 -0.703125 C 12.78125 -1.179688 12.34375 -1.859375 12.34375 -2.734375 L 12.34375 -17.015625 C 12.34375 -17.316406 12.269531 -17.582031 12.125 -17.8125 L 0.34375 -37.328125 C 0.269531 -37.472656 0.234375 -37.679688 0.234375 -37.953125 Z M 0.234375 -37.953125" transform="translate(173.548 145.16)"/></g></g></g><g fill="#44301F"><g><g><path d="M 2.90625 -13.078125 L 2.90625 -38.90625 C 2.90625 -39.78125 3.332031 -40.445312 4.1875 -40.90625 C 5.039062 -41.363281 6.09375 -41.59375 7.34375 -41.59375 C 8.550781 -41.59375 9.59375 -41.363281 10.46875 -40.90625 C 11.34375 -40.445312 11.78125 -39.78125 11.78125 -38.90625 L 11.78125 -13.078125 C 11.78125 -9.285156 13.597656 -7.390625 17.234375 -7.390625 C 20.878906 -7.390625 22.703125 -9.285156 22.703125 -13.078125 L 22.703125 -38.90625 C 22.703125 -39.78125 23.128906 -40.445312 23.984375 -40.90625 C 24.835938 -41.363281 25.890625 -41.59375 27.140625 -41.59375 C 28.347656 -41.59375 29.390625 -41.363281 30.265625 -40.90625 C 31.140625 -40.445312 31.578125 -39.78125 31.578125 -38.90625 L 31.578125 -13.078125 C 31.578125 -8.453125 30.265625 -5.054688 27.640625 -2.890625 C 25.023438 -0.734375 21.554688 0.34375 17.234375 0.34375 C 12.878906 0.34375 9.398438 -0.734375 6.796875 -2.890625 C 4.203125 -5.054688 2.90625 -8.453125 2.90625 -13.078125 Z M 2.90625 -13.078125" transform="translate(207.113 145.16)"/></g></g></g><g fill="#44301F"><g><g><path d="M 3.078125 -2.734375 L 3.078125 -37.15625 C 3.078125 -38.664062 3.5 -39.78125 4.34375 -40.5 C 5.195312 -41.226562 6.253906 -41.59375 7.515625 -41.59375 C 9.210938 -41.59375 10.507812 -41.332031 11.40625 -40.8125 C 12.300781 -40.300781 13.296875 -39.082031 14.390625 -37.15625 L 20.25 -26.90625 L 26.109375 -37.15625 C 27.210938 -39.082031 28.207031 -40.300781 29.09375 -40.8125 C 29.988281 -41.332031 31.289062 -41.59375 33 -41.59375 C 34.25 -41.59375 35.300781 -41.226562 36.15625 -40.5 C 37.007812 -39.78125 37.4375 -38.664062 37.4375 -37.15625 L 37.4375 -2.734375 C 37.4375 -1.859375 37 -1.179688 36.125 -0.703125 C 35.25 -0.234375 34.203125 0 32.984375 0 C 31.773438 0 30.734375 -0.234375 29.859375 -0.703125 C 28.992188 -1.179688 28.5625 -1.859375 28.5625 -2.734375 L 28.5625 -24.0625 L 23.09375 -14.734375 C 22.445312 -13.628906 21.460938 -13.078125 20.140625 -13.078125 C 18.847656 -13.078125 17.921875 -13.628906 17.359375 -14.734375 L 11.953125 -24.640625 L 11.953125 -2.734375 C 11.953125 -1.859375 11.515625 -1.179688 10.640625 -0.703125 C 9.765625 -0.234375 8.71875 0 7.5 0 C 6.289062 0 5.25 -0.234375 4.375 -0.703125 C 3.507812 -1.179688 3.078125 -1.859375 3.078125 -2.734375 Z M 3.078125 -2.734375" transform="translate(241.59 145.16)"/></g></g></g><g fill="#44301F"><g><g><path d="M 0.515625 -2.328125 C 0.515625 -3.316406 0.835938 -4.363281 1.484375 -5.46875 L 17.515625 -33.84375 L 4.328125 -33.84375 C 3.492188 -33.84375 2.835938 -34.222656 2.359375 -34.984375 C 1.890625 -35.742188 1.65625 -36.65625 1.65625 -37.71875 C 1.65625 -38.78125 1.878906 -39.691406 2.328125 -40.453125 C 2.785156 -41.210938 3.453125 -41.59375 4.328125 -41.59375 L 26.28125 -41.59375 C 27.988281 -41.59375 28.84375 -40.8125 28.84375 -39.25 C 28.84375 -38.34375 28.519531 -37.300781 27.875 -36.125 L 11.828125 -7.734375 L 27.3125 -7.734375 C 28.101562 -7.734375 28.742188 -7.332031 29.234375 -6.53125 C 29.734375 -5.738281 29.984375 -4.847656 29.984375 -3.859375 C 29.984375 -2.878906 29.734375 -1.988281 29.234375 -1.1875 C 28.742188 -0.394531 28.101562 0 27.3125 0 L 3.078125 0 C 1.367188 0 0.515625 -0.773438 0.515625 -2.328125 Z M 0.515625 -2.328125" transform="translate(282.095 145.16)"/></g></g></g><g fill="#44301F"><g><g><path d="M 0.234375 -37.953125 C 0.234375 -38.929688 0.90625 -39.78125 2.25 -40.5 C 3.59375 -41.226562 4.929688 -41.59375 6.265625 -41.59375 C 6.941406 -41.59375 7.453125 -41.46875 7.796875 -41.21875 C 8.140625 -40.96875 8.476562 -40.539062 8.8125 -39.9375 L 16.78125 -25.3125 L 24.6875 -39.9375 C 25.257812 -41.039062 26.113281 -41.59375 27.25 -41.59375 C 28.570312 -41.59375 29.90625 -41.226562 31.25 -40.5 C 32.601562 -39.78125 33.28125 -38.929688 33.28125 -37.953125 C 33.28125 -37.679688 33.242188 -37.472656 33.171875 -37.328125 L 21.453125 -17.8125 C 21.296875 -17.582031 21.21875 -17.316406 21.21875 -17.015625 L 21.21875 -2.734375 C 21.21875 -1.859375 20.78125 -1.179688 19.90625 -0.703125 C 19.039062 -0.234375 18 0 16.78125 0 C 15.570312 0 14.53125 -0.234375 13.65625 -0.703125 C 12.78125 -1.179688 12.34375 -1.859375 12.34375 -2.734375 L 12.34375 -17.015625 C 12.34375 -17.316406 12.269531 -17.582031 12.125 -17.8125 L 0.34375 -37.328125 C 0.269531 -37.472656 0.234375 -37.679688 0.234375 -37.953125 Z M 0.234375 -37.953125" transform="translate(312.589 145.16)"/></g></g></g><g clip-path="url(#a)"><path fill="#44301F" d="M 82.554688 74.433594 C 62.199219 74.433594 46.410156 80.847656 34.289062 94.03125 C 34.054688 94.261719 33.824219 94.515625 33.621094 94.761719 L 33.292969 95.117188 L 33.308594 95.140625 C 28.824219 100.8125 29.894531 108.808594 30.757812 112.574219 C 30.746094 112.589844 30.734375 112.609375 30.722656 112.628906 C 26.761719 118.960938 24.257812 125.820312 23.214844 133.210938 L 23.171875 133.503906 C 22.359375 139.238281 21.78125 146.257812 24.539062 149.671875 C 24.996094 150.246094 25.546875 150.703125 26.199219 151.042969 C 26.847656 151.382812 27.539062 151.578125 28.269531 151.625 C 29.585938 151.722656 30.933594 151.394531 32.152344 151.0625 C 29.996094 151.839844 27.746094 152.871094 26.421875 155.371094 C 23.808594 160.324219 26.691406 165.933594 28.792969 170.03125 L 28.847656 170.132812 C 33.320312 178.835938 40.511719 186.667969 49.648438 192.777344 L 49.761719 192.855469 C 52.871094 194.9375 56.867188 197.609375 61.078125 197.609375 C 62.390625 197.613281 63.648438 197.347656 64.851562 196.820312 C 66.527344 196.085938 67.910156 194.988281 69.003906 193.527344 C 68.734375 195.4375 68.835938 197.3125 69.765625 198.824219 C 71.726562 202.015625 76.511719 202.433594 80.460938 202.4375 L 80.570312 202.4375 C 85.671875 202.4375 89.796875 201.949219 93.554688 200.90625 C 101.023438 198.824219 108.890625 196.320312 115.976562 192.070312 C 120.699219 194.734375 126.914062 194.113281 131.210938 190.429688 L 131.308594 190.363281 L 131.421875 190.230469 C 131.617188 190.035156 132.519531 189.132812 132.941406 188.664062 C 144.421875 176.269531 150.746094 159.855469 150.746094 142.449219 C 150.75 104.945312 120.160156 74.433594 82.554688 74.433594 Z M 77.890625 162.328125 C 77.714844 159.070312 75.636719 157.226562 73.632812 155.851562 C 72.835938 155.3125 72.085938 154.714844 71.378906 154.058594 C 71.269531 153.855469 71.136719 153.664062 70.988281 153.488281 C 70.214844 152.59375 69.667969 151.507812 69.085938 150.363281 C 68.46875 149.148438 67.832031 147.890625 66.878906 146.75 C 65.226562 144.777344 62.855469 144.378906 61.179688 144.347656 C 63.804688 143.28125 66.117188 141.640625 67.210938 138.875 C 69.527344 138.335938 70.792969 136.6875 71.929688 135.207031 C 72.144531 134.929688 72.363281 134.640625 72.597656 134.351562 C 76.121094 130 81.902344 128.546875 87.316406 130.652344 C 92.574219 132.691406 95.9375 138.285156 95.308594 143.96875 C 95.078125 146.234375 94.292969 148.289062 92.949219 150.132812 C 92.757812 150.386719 92.558594 150.613281 92.347656 150.851562 C 91.683594 151.542969 91.164062 152.332031 90.789062 153.214844 C 90.371094 154.269531 90.039062 155.347656 89.789062 156.453125 C 89.664062 156.539062 89.546875 156.632812 89.433594 156.730469 C 88.460938 157.597656 87.140625 157.769531 85.609375 157.972656 C 83.613281 158.234375 81.132812 158.558594 79.289062 160.769531 C 78.75 161.433594 78.285156 162.144531 77.898438 162.910156 C 77.902344 162.726562 77.917969 162.53125 77.898438 162.335938 Z M 77.890625 162.328125"/></g><g clip-path="url(#b)"><path fill="#44301F" d="M 30.691406 34.679688 C 32.316406 43.757812 37.492188 52.648438 44.910156 59.074219 C 52.734375 65.851562 63.027344 70.316406 74.675781 71.988281 C 74.835938 72.011719 74.996094 72.023438 75.160156 72.023438 C 76.078125 72.023438 76.859375 71.699219 77.503906 71.042969 C 77.9375 70.777344 78.289062 70.429688 78.5625 70 C 78.832031 69.566406 78.992188 69.097656 79.042969 68.589844 C 79.570312 63.425781 77.566406 57.90625 76.105469 53.875 C 74.46875 49.261719 72.277344 44.929688 69.527344 40.875 C 63.824219 32.621094 55.84375 26.65625 47.035156 24.074219 C 44.910156 23.457031 42.746094 23.042969 40.542969 22.832031 L 40.191406 22.792969 C 38 22.574219 35.269531 22.300781 33.046875 23.066406 C 28.703125 24.5625 29.890625 30.601562 30.53125 33.847656 C 30.59375 34.15625 30.648438 34.4375 30.691406 34.679688 Z M 30.691406 34.679688"/></g><path fill="#44301F" d="M 84.738281 71.46875 C 85.363281 72.050781 86.105469 72.339844 86.960938 72.335938 C 87.128906 72.335938 87.292969 72.324219 87.457031 72.300781 C 100.617188 70.382812 116.285156 62.460938 120.789062 45.96875 L 120.851562 45.738281 C 121.84375 42.113281 122.773438 38.035156 121.246094 35.519531 C 120.6875 34.59375 119.789062 33.953125 118.570312 33.597656 C 118.199219 33.390625 117.808594 33.3125 117.386719 33.367188 C 115.367188 33.109375 113.03125 33.496094 111.589844 33.730469 L 111.210938 33.792969 C 104.117188 34.941406 97.226562 39.089844 92.324219 45.183594 C 89.777344 48.386719 87.738281 51.882812 86.210938 55.679688 C 84.554688 59.726562 82.820312 64.429688 83.210938 68.980469 C 83.25 69.492188 83.40625 69.96875 83.675781 70.40625 C 83.945312 70.84375 84.296875 71.199219 84.738281 71.46875 Z M 84.738281 71.46875"/><path fill="#FFCA6E" d="M 40.789062 92.789062 C 36.738281 94.621094 34.46875 99.035156 33.558594 103.382812 C 32.90625 106.496094 32.808594 109.796875 33.824219 112.808594 C 34.84375 115.824219 37.09375 118.515625 40.101562 119.578125 C 45.035156 121.320312 51.265625 118.636719 55.367188 121.890625 C 57.804688 123.824219 58.488281 127.152344 59.769531 129.976562 C 61.054688 132.800781 64.03125 135.566406 66.9375 134.457031 C 68.300781 133.9375 69.222656 132.691406 70.222656 131.628906 C 70.605469 131.21875 71.007812 130.832031 71.429688 130.464844 C 71.855469 130.09375 72.292969 129.75 72.753906 129.425781 C 73.210938 129.101562 73.683594 128.800781 74.175781 128.527344 C 74.664062 128.25 75.164062 128 75.679688 127.777344 C 76.195312 127.554688 76.71875 127.355469 77.253906 127.183594 C 77.789062 127.011719 78.328125 126.867188 78.878906 126.753906 C 79.429688 126.636719 79.980469 126.550781 80.539062 126.488281 C 81.097656 126.429688 81.660156 126.398438 82.21875 126.394531 C 82.78125 126.390625 83.339844 126.417969 83.898438 126.472656 C 84.460938 126.523438 85.015625 126.605469 85.566406 126.71875 C 86.113281 126.828125 86.660156 126.964844 87.195312 127.132812 C 87.730469 127.296875 88.257812 127.488281 88.773438 127.707031 C 89.292969 127.925781 89.796875 128.171875 90.289062 128.441406 C 90.78125 128.710938 91.257812 129.007812 91.71875 129.324219 C 92.179688 129.644531 92.625 129.984375 93.050781 130.347656 C 93.476562 130.710938 93.886719 131.097656 94.273438 131.503906 C 94.710938 131.964844 95.199219 132.480469 95.835938 132.484375 C 96.167969 132.457031 96.476562 132.363281 96.761719 132.199219 C 104.027344 128.695312 110.574219 123.496094 114.996094 116.765625 C 119.417969 110.03125 121.597656 101.710938 120.285156 93.769531 C 120.03125 92.199219 119.589844 90.578125 118.511719 89.414062 C 117.691406 88.535156 116.574219 88.003906 115.484375 87.488281 C 103.316406 81.765625 90.394531 75.902344 76.996094 77.171875 C 72.90625 77.558594 68.910156 78.609375 64.972656 79.78125 C 56.316406 82.351562 47.554688 85.707031 41.050781 91.964844"/><path fill="#FFCA6E" d="M 40.695312 92.628906 C 34.558594 95.675781 32.101562 103.914062 33.046875 110.3125 C 33.507812 113.53125 35.058594 116.621094 37.753906 118.546875 C 40.585938 120.570312 43.984375 120.441406 47.308594 120.371094 C 49.398438 120.324219 51.527344 120.273438 53.496094 121.0625 C 56.277344 122.175781 57.46875 124.714844 58.507812 127.328125 C 59.59375 130.042969 60.730469 133.074219 63.59375 134.402344 C 66.742188 135.863281 68.597656 133.527344 70.636719 131.472656 C 71.277344 130.820312 71.964844 130.226562 72.707031 129.6875 C 73.445312 129.152344 74.226562 128.679688 75.046875 128.273438 C 75.867188 127.867188 76.714844 127.53125 77.59375 127.269531 C 78.46875 127.003906 79.363281 126.816406 80.269531 126.703125 C 81.179688 126.589844 82.089844 126.550781 83.003906 126.59375 C 83.917969 126.632812 84.824219 126.746094 85.71875 126.941406 C 86.613281 127.132812 87.488281 127.398438 88.339844 127.734375 C 89.1875 128.074219 90.003906 128.480469 90.785156 128.957031 C 91.902344 129.636719 92.925781 130.433594 93.859375 131.34375 C 94.253906 131.722656 94.675781 132.289062 95.195312 132.5 C 96.183594 132.898438 97.050781 132.269531 97.914062 131.832031 C 99.773438 130.882812 101.570312 129.824219 103.300781 128.65625 C 109.792969 124.261719 115.269531 118.246094 118.289062 110.957031 C 119.820312 107.308594 120.667969 103.503906 120.839844 99.550781 C 120.953125 96.460938 120.957031 92.136719 118.898438 89.585938 C 117.84375 88.277344 116.261719 87.640625 114.773438 86.941406 C 112.59375 85.914062 110.40625 84.902344 108.199219 83.933594 C 104.050781 82.105469 99.828125 80.414062 95.472656 79.132812 C 90.78125 77.746094 85.921875 76.84375 81.015625 76.820312 C 75.832031 76.789062 70.816406 77.898438 65.851562 79.335938 C 56.851562 81.953125 47.839844 85.332031 40.914062 91.847656 C 40.738281 92.011719 41 92.273438 41.175781 92.109375 C 47.007812 86.625 54.339844 83.375 61.886719 80.9375 C 70.007812 78.304688 78.148438 76.4375 86.726562 77.597656 C 95.042969 78.722656 102.914062 81.910156 110.5 85.363281 C 112.25 86.160156 114.007812 86.953125 115.734375 87.796875 C 118.183594 88.996094 119.550781 90.71875 120.050781 93.417969 C 120.828125 97.582031 120.566406 101.976562 119.53125 106.070312 C 117.644531 113.527344 113.222656 120.046875 107.425781 125.050781 C 104.554688 127.503906 101.441406 129.601562 98.082031 131.332031 C 96.800781 132 95.828125 132.183594 94.410156 131.367188 C 93.792969 131.007812 93.203125 130.210938 92.632812 129.765625 C 91.359375 128.78125 89.976562 127.996094 88.480469 127.402344 C 87.105469 126.867188 85.6875 126.511719 84.21875 126.347656 C 82.753906 126.179688 81.289062 126.207031 79.828125 126.425781 C 78.371094 126.640625 76.960938 127.042969 75.609375 127.628906 C 74.253906 128.214844 73 128.96875 71.84375 129.882812 C 70.464844 130.980469 69.46875 132.515625 68.046875 133.535156 C 65.105469 135.652344 62.070312 133.515625 60.460938 130.839844 C 58.910156 128.265625 58.507812 125.089844 56.519531 122.742188 C 54.648438 120.542969 51.898438 120.003906 49.136719 119.96875 C 44.757812 119.90625 40.347656 120.59375 36.859375 117.308594 C 30.257812 111.089844 32.917969 96.890625 40.882812 92.9375 C 41.097656 92.832031 40.910156 92.511719 40.695312 92.617188 Z M 40.695312 92.628906"/><path fill="#FFCA6E" d="M 117.1875 89.492188 C 122.792969 90.976562 127.042969 95.425781 130.882812 99.757812 C 136.5625 106.164062 142.210938 113.066406 144.25 121.375 C 145.054688 124.640625 147.117188 133.914062 147.328125 137.269531 C 147.929688 146.910156 146.664062 150.851562 144.21875 160.199219 C 142.171875 168.011719 138.097656 175.128906 133.761719 181.941406 C 132.5625 183.828125 131.320312 185.722656 129.65625 187.210938 C 127.03125 189.554688 123.296875 190.738281 119.867188 189.941406 C 116.4375 189.148438 113.503906 186.21875 113.070312 182.734375 C 112.628906 179.152344 114.574219 175.070312 112.464844 172.144531 C 111.574219 170.914062 110.132812 170.210938 108.714844 169.660156 C 106.46875 168.785156 104.148438 168.179688 101.761719 167.839844 C 99.8125 167.5625 97.75 167.433594 96.101562 166.363281 C 92.820312 164.230469 92.707031 159.375 94.085938 155.722656 C 95.464844 152.074219 97.933594 148.804688 98.699219 144.96875 C 99.359375 141.675781 98.6875 138.222656 97.339844 135.144531 C 95.84375 131.730469 93.476562 128.390625 93.859375 124.6875"/><path fill="#FFCA6E" d="M 117.140625 89.667969 C 124.113281 91.707031 128.964844 97.695312 133.484375 103.03125 C 138.183594 108.582031 142.394531 114.625 144.148438 121.78125 C 145.335938 126.597656 146.546875 131.558594 147.0625 136.492188 C 147.703125 142.589844 146.980469 148.601562 145.5 154.515625 C 143.671875 161.808594 141.34375 168.597656 137.632812 175.175781 C 134.230469 181.207031 130.15625 190.007812 122.097656 190.015625 C 118.132812 190.015625 114.242188 187.355469 113.367188 183.378906 C 112.640625 180.097656 114.429688 176.648438 113.316406 173.433594 C 111.382812 167.816406 102.726562 168.378906 98.15625 167.058594 C 93.394531 165.671875 92.761719 160.515625 94.054688 156.390625 C 95.210938 152.707031 97.714844 149.585938 98.691406 145.828125 C 99.558594 142.507812 99.074219 139.035156 97.839844 135.871094 C 96.390625 132.148438 93.832031 128.855469 94.050781 124.683594 C 94.0625 124.453125 93.691406 124.453125 93.679688 124.683594 C 93.5 128.046875 95.070312 130.832031 96.496094 133.777344 C 98.582031 138.097656 99.535156 142.6875 97.824219 147.3125 C 95.867188 152.601562 90.390625 159.175781 94.382812 164.9375 C 95.929688 167.167969 98.492188 167.574219 101.003906 167.945312 C 105.296875 168.550781 112.667969 169.65625 113.210938 174.953125 C 113.554688 178.273438 112.082031 181.609375 113.445312 184.835938 C 113.980469 186.054688 114.746094 187.113281 115.738281 188.003906 C 116.734375 188.898438 117.867188 189.546875 119.140625 189.953125 C 125.714844 192.035156 130.710938 187.089844 133.921875 182.054688 C 138.109375 175.492188 142.039062 168.625 144.167969 161.09375 C 145.988281 154.703125 147.671875 148.230469 147.660156 141.546875 C 147.660156 135.679688 146.414062 130.007812 145.125 124.304688 C 143.4375 116.855469 140.144531 110.660156 135.34375 104.714844 C 130.488281 98.699219 124.980469 91.585938 117.238281 89.324219 C 117.125 89.300781 117.050781 89.347656 117.023438 89.457031 C 116.992188 89.570312 117.03125 89.644531 117.140625 89.679688 Z M 117.140625 89.667969"/><path fill="#FF9843" d="M 34.472656 114.132812 C 31.996094 118.28125 30.054688 122.664062 28.648438 127.285156 C 27.242188 131.90625 26.414062 136.625 26.160156 141.449219 C 26.074219 143.082031 26.160156 144.945312 27.386719 146.027344 C 28.542969 147.042969 30.269531 146.972656 31.792969 146.808594 C 41.785156 145.757812 51.460938 143.410156 60.820312 139.769531 C 61.875 139.359375 63.035156 138.816406 63.402344 137.753906 C 64.097656 135.722656 61.546875 134.246094 60.195312 132.570312 C 57.777344 129.5625 59.035156 124.425781 56.058594 121.972656 C 53.484375 119.859375 49.695312 121.226562 46.371094 121.453125 C 45.257812 121.515625 44.15625 121.441406 43.0625 121.226562 C 41.96875 121.015625 40.917969 120.671875 39.910156 120.195312 C 38.902344 119.71875 37.972656 119.125 37.113281 118.417969 C 36.253906 117.707031 35.5 116.902344 34.84375 116.003906"/><path fill="#FFA071" d="M 34.152344 113.945312 C 31.9375 117.683594 30.148438 121.617188 28.78125 125.738281 C 27.414062 129.859375 26.496094 134.082031 26.035156 138.398438 C 25.761719 141.0625 24.949219 145.417969 28.027344 146.847656 C 30.847656 148.15625 35.253906 146.804688 38.199219 146.324219 C 42.980469 145.542969 47.695312 144.460938 52.339844 143.074219 C 54.515625 142.425781 56.671875 141.710938 58.804688 140.929688 C 60.195312 140.421875 62.09375 139.964844 63.136719 138.828125 C 65.15625 136.636719 62.589844 134.597656 61.140625 133.046875 C 58.605469 130.351562 59.285156 126.773438 57.78125 123.644531 C 56.277344 120.511719 53.070312 120.238281 49.945312 120.632812 C 47.378906 120.949219 45.011719 121.371094 42.449219 120.71875 C 40.988281 120.339844 39.636719 119.730469 38.386719 118.890625 C 37.136719 118.054688 36.0625 117.03125 35.164062 115.828125 C 34.878906 115.453125 34.234375 115.828125 34.519531 116.199219 C 37.875 120.605469 42.882812 122.351562 48.296875 121.605469 C 52.390625 121.046875 56.433594 120.789062 57.675781 125.636719 C 58.269531 127.949219 58.292969 130.492188 59.707031 132.515625 C 60.363281 133.453125 61.492188 134.089844 62.082031 135.046875 C 62.304688 135.40625 62.253906 138.457031 61.902344 138.871094 C 61.625 139.199219 60.714844 139.414062 60.308594 139.578125 C 59.328125 139.976562 58.324219 140.328125 57.328125 140.679688 C 53.613281 141.984375 49.839844 143.097656 46.007812 144.007812 C 42.0625 144.945312 38.078125 145.671875 34.054688 146.179688 C 32.429688 146.386719 30.53125 146.832031 28.953125 146.300781 C 26.105469 145.351562 26.460938 142.136719 26.65625 139.707031 C 27.039062 135.222656 27.917969 130.839844 29.289062 126.554688 C 30.660156 122.269531 32.496094 118.191406 34.789062 114.320312 C 34.839844 114.230469 34.855469 114.136719 34.828125 114.039062 C 34.800781 113.941406 34.746094 113.863281 34.65625 113.8125 C 34.570312 113.761719 34.476562 113.746094 34.375 113.773438 C 34.277344 113.800781 34.199219 113.855469 34.148438 113.945312 Z M 34.152344 113.945312"/><path fill="#FF9843" d="M 62.65625 147.828125 C 63.519531 149.882812 64.632812 151.792969 65.996094 153.554688 C 67.363281 155.316406 68.9375 156.867188 70.714844 158.214844 C 71.625 158.910156 72.605469 159.554688 73.167969 160.542969 C 73.898438 161.84375 73.75 163.441406 73.535156 164.914062 C 72.4375 172.515625 70.238281 179.910156 68.042969 187.269531 C 67.488281 189.132812 66.863281 191.101562 65.378906 192.355469 C 63.800781 193.699219 61.511719 193.949219 59.492188 193.488281 C 57.472656 193.027344 55.660156 191.941406 53.910156 190.828125 C 43.984375 184.527344 34.511719 176.328125 30.617188 165.246094 C 29.535156 162.164062 29.050781 158.375 31.242188 155.957031 C 32.679688 154.371094 34.902344 153.804688 36.988281 153.328125 C 45.183594 151.449219 53.398438 149.707031 61.636719 148.101562"/><path fill="#FFA071" d="M 62.335938 148.015625 C 63.800781 151.449219 65.902344 154.4375 68.640625 156.976562 C 69.949219 158.171875 71.96875 159.160156 72.839844 160.730469 C 74.160156 163.113281 72.878906 166.890625 72.390625 169.355469 C 71.492188 173.875 70.277344 178.324219 68.988281 182.75 C 67.730469 187.066406 66.902344 193.316406 61.210938 193.328125 C 56.945312 193.328125 52.609375 189.664062 49.296875 187.273438 C 45.949219 184.898438 42.847656 182.238281 39.992188 179.289062 C 37.261719 176.480469 34.960938 173.359375 33.085938 169.921875 C 31.230469 166.453125 28.722656 161.132812 30.785156 157.257812 C 32.117188 154.769531 35.046875 154.15625 37.566406 153.578125 C 40.242188 152.960938 42.921875 152.363281 45.605469 151.78125 C 50.972656 150.617188 56.351562 149.507812 61.738281 148.457031 C 62.203125 148.367188 62.007812 147.652344 61.539062 147.742188 C 55.511719 148.921875 49.503906 150.167969 43.515625 151.484375 C 39.628906 152.335938 33.492188 152.605469 30.761719 155.964844 C 28.441406 158.820312 29.339844 162.929688 30.515625 166.0625 C 32.007812 170.035156 34.25 173.679688 36.929688 176.957031 C 39.796875 180.460938 43.160156 183.53125 46.742188 186.292969 C 50.394531 189.109375 54.792969 192.832031 59.386719 193.851562 C 62.742188 194.597656 65.863281 193.371094 67.371094 190.230469 C 68.328125 188.222656 68.820312 185.953125 69.441406 183.832031 C 70.308594 180.878906 71.144531 177.925781 71.890625 174.941406 C 72.636719 171.957031 73.28125 168.957031 73.746094 165.917969 C 74.070312 163.835938 74.453125 161.597656 73.09375 159.792969 C 71.773438 158.046875 69.570312 156.941406 68.039062 155.355469 C 65.882812 153.085938 64.191406 150.515625 62.964844 147.636719 C 62.777344 147.199219 62.136719 147.574219 62.324219 148.007812 Z M 62.335938 148.015625"/><path fill="#FF9843" d="M 92.84375 158.683594 C 90.292969 161.15625 85.84375 160.175781 82.929688 162.203125 C 80.796875 163.691406 79.996094 166.414062 79.339844 168.914062 C 77.308594 176.648438 75.28125 184.382812 73.253906 192.113281 C 73.023438 193.027344 72.777344 193.988281 73.023438 194.890625 C 73.539062 196.765625 75.804688 197.496094 77.734375 197.738281 C 82.324219 198.304688 86.980469 197.828125 91.546875 197.121094 C 93.710938 196.824219 95.835938 196.363281 97.925781 195.730469 C 99.71875 195.117188 101.472656 194.402344 103.183594 193.582031 L 112.167969 189.492188 C 112.683594 189.261719 113.230469 188.996094 113.507812 188.507812 C 114.136719 187.394531 113.046875 186.160156 112.40625 185.050781 C 110.890625 182.382812 112.117188 179.085938 112.882812 176.117188 C 113.132812 175.144531 113.324219 174.082031 112.898438 173.171875 C 112.566406 172.453125 111.894531 171.945312 111.203125 171.554688 C 107.816406 169.617188 103.679688 169.71875 99.914062 168.710938 C 96.148438 167.699219 92.238281 164.578125 92.871094 160.742188"/><path fill="#FFA071" d="M 92.582031 158.417969 C 89.511719 161.035156 84.796875 159.714844 81.871094 162.625 C 78.984375 165.503906 78.496094 170.660156 77.519531 174.386719 L 73.382812 190.160156 C 72.585938 193.207031 71.78125 196.171875 75.355469 197.5625 C 79.660156 199.230469 85.289062 198.378906 89.71875 197.773438 C 94.464844 197.171875 99.015625 195.886719 103.375 193.917969 C 105.921875 192.765625 108.46875 191.609375 111.007812 190.449219 C 112.152344 189.929688 113.851562 189.480469 114.054688 188.011719 C 114.273438 186.457031 112.574219 185.007812 112.226562 183.59375 C 111.527344 180.816406 113.011719 178.179688 113.410156 175.496094 C 114.011719 171.492188 109.84375 170.261719 106.625 169.605469 C 101.726562 168.601562 92.542969 167.910156 93.242188 160.757812 C 93.289062 160.292969 92.546875 160.292969 92.5 160.757812 C 91.804688 167.863281 100.507812 169.234375 105.605469 170.164062 C 107.460938 170.5 110.675781 170.96875 111.921875 172.527344 C 113.652344 174.675781 111.886719 177.863281 111.5 180.238281 C 111.285156 181.539062 111.21875 182.871094 111.621094 184.140625 C 111.808594 184.746094 112.207031 185.246094 112.4375 185.824219 C 113.246094 187.90625 112.808594 188.8125 111.085938 189.605469 C 106.617188 191.660156 102.097656 194.109375 97.382812 195.53125 C 92.886719 196.890625 87.949219 197.480469 83.265625 197.613281 C 81.101562 197.679688 78.625 197.734375 76.519531 197.152344 C 74.773438 196.671875 73.503906 195.679688 73.410156 193.855469 C 73.347656 192.515625 73.875 191.179688 74.222656 189.898438 L 77.746094 176.445312 C 78.398438 173.972656 79.03125 171.492188 79.695312 169.023438 C 80.277344 166.851562 80.902344 164.464844 82.640625 162.90625 C 85.542969 160.304688 90.097656 161.519531 93.105469 158.949219 C 93.46875 158.636719 92.941406 158.117188 92.582031 158.421875 Z M 92.582031 158.417969"/><path fill="#00C560" d="M 34.324219 25.523438 C 33.058594 29.542969 33.828125 33.929688 35.175781 37.921875 C 40.628906 54.097656 56.121094 66.410156 73.148438 68.101562 C 73.621094 68.1875 74.085938 68.15625 74.542969 68.003906 C 75.660156 67.542969 75.738281 65.996094 75.5625 64.796875 C 74.710938 59.011719 72.203125 53.613281 69.722656 48.3125 C 68.5625 45.863281 67.414062 43.394531 65.835938 41.195312 C 64.292969 39.054688 62.371094 37.207031 60.3125 35.558594 C 56.761719 32.734375 52.867188 30.511719 48.628906 28.886719 C 44.386719 27.265625 40 26.316406 35.46875 26.046875"/><path fill="#00C560" d="M 34.132812 25.476562 C 31.8125 33.847656 36.335938 43.265625 41.269531 49.886719 C 43.695312 53.148438 46.503906 56.042969 49.6875 58.574219 C 52.871094 61.105469 56.324219 63.191406 60.050781 64.828125 C 63.773438 66.46875 67.652344 67.570312 71.6875 68.125 C 74.5625 68.511719 76.09375 67.964844 75.738281 64.757812 C 75.191406 59.839844 73.03125 55.074219 70.988281 50.621094 C 68.933594 46.132812 66.925781 41.621094 63.394531 38.070312 C 56.066406 30.699219 45.753906 26.550781 35.46875 25.863281 C 35.238281 25.851562 35.238281 26.21875 35.46875 26.234375 C 39.703125 26.5 43.8125 27.355469 47.800781 28.800781 C 51.789062 30.246094 55.496094 32.21875 58.914062 34.722656 C 66.296875 40.175781 70.09375 48.429688 73.222656 56.832031 C 73.949219 58.746094 74.535156 60.699219 74.984375 62.691406 C 75.175781 63.589844 75.882812 65.746094 75.355469 66.625 C 74.890625 67.410156 73.230469 67.824219 72.441406 67.84375 C 71.777344 67.863281 71.039062 67.660156 70.375 67.546875 C 66.753906 66.925781 63.269531 65.867188 59.917969 64.367188 C 56.714844 62.9375 53.714844 61.167969 50.914062 59.0625 C 48.113281 56.957031 45.582031 54.566406 43.324219 51.890625 C 37.570312 45.078125 31.960938 34.671875 34.492188 25.566406 C 34.523438 25.449219 34.480469 25.371094 34.359375 25.339844 C 34.242188 25.308594 34.164062 25.351562 34.132812 25.46875 Z M 34.132812 25.476562"/><path fill="#00C560" d="M 87.320312 67.203125 C 87.332031 59.25 91.84375 52.023438 96.882812 45.867188 C 99.226562 43.003906 101.800781 40.195312 105.121094 38.558594 C 108.558594 36.859375 112.511719 36.554688 116.34375 36.578125 C 116.859375 36.578125 117.433594 36.617188 117.777344 37 C 118.003906 37.3125 118.121094 37.667969 118.117188 38.058594 C 118.792969 45.78125 114.527344 53.308594 108.59375 58.3125 C 102.660156 63.316406 95.226562 66.175781 87.820312 68.515625"/><path fill="#00C560" d="M 87.503906 67.203125 C 87.675781 59.105469 92.03125 52.089844 97.011719 45.996094 C 99.332031 43.167969 101.882812 40.355469 105.210938 38.71875 C 107.761719 37.457031 117.050781 34.574219 117.980469 38.835938 C 118.71875 42.226562 116.878906 46.890625 115.3125 49.808594 C 113.558594 53.03125 111.273438 55.820312 108.460938 58.179688 C 102.523438 63.207031 95.09375 66 87.769531 68.335938 C 87.539062 68.410156 87.640625 68.765625 87.867188 68.691406 C 100.242188 64.742188 114.289062 58.394531 117.753906 44.570312 C 118.214844 42.71875 119.203125 38.863281 118.0625 37.144531 C 116.953125 35.476562 113.019531 36.425781 111.398438 36.617188 C 104.542969 37.4375 100.117188 41.476562 95.976562 46.691406 C 91.261719 52.628906 87.296875 59.429688 87.132812 67.203125 C 87.132812 67.324219 87.195312 67.386719 87.320312 67.386719 C 87.441406 67.386719 87.503906 67.324219 87.503906 67.203125 Z M 87.503906 67.203125"/><path fill="#F9B450" d="M 122.796875 91.132812 C 132.425781 102.386719 135.75 117.792969 135.996094 132.585938 C 136.140625 141.15625 135.328125 149.886719 132.113281 157.839844 C 128.566406 166.613281 122.292969 173.992188 115.773438 180.863281 C 115.144531 181.527344 114.496094 182.21875 114.207031 183.085938 C 113.730469 184.53125 114.414062 186.171875 115.542969 187.203125 C 116.667969 188.230469 118.160156 188.765625 119.632812 189.171875 C 123.039062 190.109375 126.925781 190.449219 129.890625 188.53125 C 131.976562 187.175781 133.273438 184.917969 134.472656 182.734375 C 138.183594 176.003906 141.824219 169.179688 144.167969 161.859375 C 151.289062 139.621094 144.972656 113.710938 128.585938 97.046875"/><path fill="#F9B450" d="M 122.667969 91.257812 C 133.074219 103.640625 136.085938 120.371094 135.8125 136.128906 C 135.660156 144.882812 134.246094 153.65625 130.21875 161.519531 C 126.445312 168.890625 120.902344 174.875 115.410156 180.976562 C 110.738281 186.164062 118.175781 189.394531 122.597656 189.960938 C 125.378906 190.316406 128.3125 190.019531 130.59375 188.25 C 133.105469 186.300781 134.496094 183.105469 135.96875 180.386719 C 139.855469 173.242188 143.519531 165.886719 145.464844 157.949219 C 147.089844 151.257812 147.617188 144.480469 147.039062 137.621094 C 145.789062 122.4375 139.363281 107.847656 128.71875 96.894531 C 128.554688 96.722656 128.292969 96.984375 128.457031 97.15625 C 137.816406 106.789062 143.921875 119.265625 146.046875 132.5 C 148.40625 147.234375 145.308594 161.25 138.65625 174.472656 C 136.945312 177.875 135.207031 181.34375 133.191406 184.578125 C 130.585938 188.769531 126.730469 190.285156 121.929688 189.476562 C 120.007812 189.152344 117.863281 188.644531 116.277344 187.472656 C 114.90625 186.46875 114.300781 185.425781 114.503906 183.726562 C 114.691406 182.183594 115.464844 181.453125 116.484375 180.367188 C 118.972656 177.714844 121.40625 175.015625 123.671875 172.164062 C 127.882812 166.84375 131.441406 161.019531 133.5 154.53125 C 135.746094 147.457031 136.316406 139.945312 136.191406 132.558594 C 135.960938 117.804688 132.644531 102.527344 122.941406 90.980469 C 122.789062 90.796875 122.527344 91.058594 122.679688 91.238281 Z M 122.667969 91.257812"/><path fill="#EA8234" d="M 89.046875 161.523438 C 89.542969 163.816406 90.371094 165.988281 91.53125 168.03125 C 92.6875 170.074219 94.125 171.902344 95.839844 173.507812 C 97.382812 174.945312 99.121094 176.171875 100.589844 177.671875 C 104.105469 181.296875 105.792969 186.257812 107.457031 191.023438 C 107.535156 191.355469 107.707031 191.636719 107.96875 191.855469 C 108.34375 192.113281 108.847656 191.992188 109.285156 191.855469 L 112.367188 190.972656 C 113.15625 190.738281 114.023438 190.460938 114.4375 189.753906 C 115.144531 188.558594 114.148438 187.132812 113.574219 185.871094 C 112.480469 183.480469 112.9375 180.71875 112.976562 178.089844 C 113.019531 175.464844 112.363281 172.441406 110.027344 171.222656 C 108.960938 170.667969 107.710938 170.59375 106.53125 170.414062 C 104.335938 170.085938 102.21875 169.359375 100.117188 168.636719 C 97.453125 167.710938 94.535156 166.59375 93.261719 164.089844 C 92.679688 162.949219 92.503906 161.621094 91.824219 160.535156 C 91.144531 159.449219 89.59375 158.699219 88.578125 159.484375"/><path fill="#EA8234" d="M 88.863281 161.570312 C 89.582031 164.789062 90.910156 167.734375 92.84375 170.40625 C 94.988281 173.332031 97.964844 175.234375 100.453125 177.804688 C 103.316406 180.769531 104.953125 184.617188 106.339844 188.433594 C 107.035156 190.34375 107.015625 192.382812 109.332031 192.050781 C 110.890625 191.816406 114.472656 191.179688 114.835938 189.175781 C 115.019531 188.203125 114.421875 187.28125 114.042969 186.433594 C 113.035156 184.195312 113.003906 182.085938 113.101562 179.695312 C 113.199219 177.230469 113.257812 174.386719 111.621094 172.34375 C 109.835938 170.109375 106.664062 170.398438 104.132812 169.734375 C 99.480469 168.511719 94.554688 167.132812 92.757812 162.265625 C 92.0625 160.414062 90.734375 158.234375 88.484375 159.34375 C 88.273438 159.449219 88.460938 159.769531 88.671875 159.664062 C 91.871094 158.085938 92.324219 163.109375 93.453125 164.800781 C 94.070312 165.683594 94.84375 166.402344 95.769531 166.953125 C 98.410156 168.617188 101.835938 169.609375 104.84375 170.296875 C 106.46875 170.671875 108.421875 170.601562 109.929688 171.402344 C 112.105469 172.558594 112.695312 175.203125 112.785156 177.449219 C 112.898438 180.367188 112.269531 183.1875 113.410156 185.984375 C 114.0625 187.605469 115.542969 188.992188 112.910156 190.625 C 112.238281 191.042969 111.152344 191.148438 110.386719 191.367188 C 107.605469 192.167969 107.3125 190.003906 106.558594 187.960938 C 105.457031 184.957031 104.199219 181.980469 102.28125 179.402344 C 100.207031 176.613281 97.21875 174.796875 94.859375 172.28125 C 92.007812 169.183594 90.125 165.582031 89.214844 161.476562 C 89.160156 161.246094 88.804688 161.34375 88.855469 161.574219 Z M 88.863281 161.570312"/><path fill="#EA8234" d="M 31.945312 116.570312 C 32.445312 121.675781 36.875 126.121094 41.976562 126.664062 C 43.566406 126.835938 45.191406 126.664062 46.765625 126.964844 C 52.023438 127.96875 54.847656 133.546875 58.910156 137.023438 C 59.695312 137.695312 60.589844 138.316406 61.617188 138.410156 C 62.644531 138.507812 63.796875 137.910156 63.992188 136.898438 C 64.261719 135.472656 62.691406 134.480469 61.671875 133.429688 C 58.984375 130.652344 59.742188 125.726562 57.046875 122.945312 C 54.777344 120.605469 51.042969 120.726562 47.789062 121.023438 C 44.535156 121.316406 40.804688 121.449219 38.515625 119.117188 C 36.941406 117.496094 36.117188 114.796875 33.878906 114.445312"/><path fill="#EA8234" d="M 31.757812 116.570312 C 32.453125 121.804688 36.605469 126.226562 41.960938 126.847656 C 43.878906 127.078125 45.804688 126.824219 47.679688 127.390625 C 49.558594 127.957031 51.085938 129.160156 52.453125 130.480469 C 54.742188 132.699219 56.570312 135.425781 59.09375 137.398438 C 60.359375 138.386719 62.773438 139.414062 63.90625 137.585938 C 65.042969 135.757812 62.835938 134.421875 61.820312 133.304688 C 59.574219 130.820312 59.804688 127.261719 58.316406 124.40625 C 57.199219 122.265625 55.171875 121.167969 52.828125 120.820312 C 49.066406 120.265625 45.222656 121.65625 41.5 120.605469 C 37.894531 119.585938 37.394531 115.183594 33.964844 114.269531 C 33.863281 114.261719 33.800781 114.308594 33.773438 114.402344 C 33.746094 114.5 33.773438 114.570312 33.863281 114.617188 C 36.914062 115.429688 37.644531 119.527344 40.707031 120.722656 C 43.183594 121.6875 45.929688 121.328125 48.507812 121.140625 C 53.019531 120.820312 57.121094 121.546875 58.679688 126.324219 C 59.457031 128.710938 59.667969 131.324219 61.34375 133.3125 C 61.78125 133.832031 62.675781 134.316406 62.96875 134.910156 C 62.058594 137.761719 60.953125 138.566406 59.65625 137.324219 C 59.253906 137.066406 58.878906 136.773438 58.539062 136.4375 C 57.34375 135.386719 56.308594 134.140625 55.257812 132.953125 C 53.429688 130.894531 51.546875 128.710938 49.011719 127.511719 C 46.121094 126.144531 42.957031 126.992188 39.980469 126.046875 C 35.753906 124.703125 32.703125 120.902344 32.125 116.5625 C 32.09375 116.332031 31.722656 116.332031 31.753906 116.5625 Z M 31.757812 116.570312"/><path fill="#189E54" d="M 34.851562 26.65625 C 42.300781 40.351562 54.574219 50.683594 66.554688 60.675781 L 76.292969 68.789062 C 68.953125 65.765625 60.488281 65.609375 53.710938 61.484375 C 51.886719 60.375 50.230469 59.007812 48.609375 57.613281 C 44.785156 54.328125 41.050781 50.835938 38.300781 46.617188 C 36.355469 43.613281 34.964844 40.375 34.128906 36.902344 C 33.289062 33.429688 33.054688 29.914062 33.417969 26.359375"/><path fill="#00C560" d="M 34.691406 26.75 C 42.179688 40.300781 54.046875 50.472656 65.785156 60.261719 C 67.496094 61.691406 69.207031 63.117188 70.917969 64.542969 L 73.164062 66.414062 C 73.394531 66.613281 75.535156 68.070312 75.574219 68.300781 C 75.46875 67.730469 70.730469 66.78125 70.066406 66.613281 C 68.195312 66.148438 66.308594 65.726562 64.4375 65.269531 C 60.449219 64.292969 56.484375 63.097656 53.027344 60.828125 C 49.460938 58.484375 46.144531 55.382812 43.183594 52.328125 C 36.351562 45.28125 32.703125 36.207031 33.601562 26.359375 C 33.621094 26.128906 33.25 26.128906 33.230469 26.359375 C 32.175781 37.878906 37.324219 47.582031 45.644531 55.230469 C 49.730469 58.992188 53.878906 62.371094 59.207031 64.183594 C 64.800781 66.085938 70.730469 66.78125 76.242188 68.964844 C 76.414062 69.035156 76.5625 68.773438 76.421875 68.65625 C 61.414062 56.148438 44.636719 43.980469 35.019531 26.5625 C 34.90625 26.355469 34.585938 26.539062 34.699219 26.75 Z M 34.691406 26.75"/><path fill="#189E54" d="M 87.050781 69.011719 C 90.242188 65.363281 94.238281 62.535156 97.867188 59.3125 C 105.648438 52.40625 111.667969 43.789062 117.609375 35.257812 C 119.21875 39.542969 119.804688 44.507812 117.785156 48.605469 C 117.191406 49.742188 116.5 50.8125 115.710938 51.820312 C 112.433594 56.238281 108.785156 60.464844 104.304688 63.675781 C 99.828125 66.882812 94.445312 69.039062 88.929688 68.949219"/><path fill="#00C560" d="M 87.191406 69.144531 C 92.355469 63.390625 98.914062 59.105469 104.117188 53.324219 C 106.542969 50.628906 108.800781 47.785156 110.96875 44.882812 C 112.097656 43.375 113.203125 41.851562 114.289062 40.316406 C 114.753906 39.675781 116.917969 35.851562 117.710938 36.0625 C 118.597656 36.292969 118.882812 41.878906 118.894531 42.394531 C 118.957031 44.53125 118.539062 46.566406 117.632812 48.503906 C 115.925781 52.019531 112.996094 55.226562 110.335938 58.0625 C 104.707031 64.078125 97.417969 68.722656 88.941406 68.753906 C 88.816406 68.753906 88.753906 68.816406 88.753906 68.941406 C 88.753906 69.0625 88.816406 69.125 88.941406 69.125 C 97.964844 69.089844 105.605469 63.910156 111.433594 57.40625 C 114.007812 54.53125 117.082031 51.203125 118.4375 47.539062 C 119.921875 43.527344 119.191406 39.136719 117.800781 35.207031 C 117.773438 35.132812 117.722656 35.089844 117.644531 35.078125 C 117.5625 35.066406 117.503906 35.097656 117.460938 35.164062 C 113.011719 41.546875 108.546875 47.964844 103.277344 53.710938 C 98.230469 59.214844 91.914062 63.339844 86.925781 68.882812 C 86.769531 69.058594 87.03125 69.324219 87.191406 69.144531 Z M 87.191406 69.144531"/><path fill="#F9B450" d="M 59.707031 130.363281 C 63.1875 125.570312 68.390625 121.992188 74.191406 120.765625 C 79.996094 119.539062 86.332031 120.753906 91.085938 124.289062 C 95.84375 127.824219 98.851562 133.679688 98.660156 139.59375 C 97.203125 133.578125 92.085938 128.621094 86.023438 127.335938 C 79.960938 126.046875 73.269531 128.515625 69.488281 133.417969 C 69.023438 134.015625 68.597656 134.65625 67.984375 135.105469 C 66.554688 136.152344 64.457031 135.824219 63.011719 134.792969 C 61.5625 133.765625 60.628906 132.183594 59.765625 130.628906"/><path fill="#F9B450" d="M 59.867188 130.457031 C 64.414062 124.386719 71.460938 120.308594 79.191406 120.496094 C 86.554688 120.675781 93.570312 124.71875 96.726562 131.476562 C 97.511719 133.132812 98.035156 134.867188 98.296875 136.679688 C 98.324219 136.855469 98.53125 138.867188 98.566406 138.855469 C 98.75 138.8125 98.035156 137.125 97.914062 136.855469 C 96.8125 134.398438 95.21875 132.320312 93.136719 130.609375 C 92.160156 129.800781 91.105469 129.113281 89.96875 128.550781 C 88.832031 127.988281 87.648438 127.558594 86.414062 127.269531 C 85.175781 126.980469 83.925781 126.832031 82.65625 126.832031 C 81.386719 126.832031 80.136719 126.976562 78.898438 127.265625 C 75.90625 127.960938 73.285156 129.351562 71.035156 131.445312 C 69.386719 132.996094 68.316406 135.375 65.824219 135.453125 C 62.875 135.535156 61.207031 132.808594 59.933594 130.539062 C 59.816406 130.328125 59.496094 130.515625 59.613281 130.726562 C 61.003906 133.199219 62.960938 136.164062 66.210938 135.914062 C 67.851562 135.789062 68.664062 134.734375 69.628906 133.554688 C 71.191406 131.582031 73.097656 130.042969 75.355469 128.929688 C 84.757812 124.410156 95.800781 129.621094 98.480469 139.644531 C 98.511719 139.746094 98.578125 139.792969 98.683594 139.777344 C 98.792969 139.761719 98.84375 139.703125 98.847656 139.59375 C 98.9375 130.425781 92.351562 122.628906 83.457031 120.644531 C 74.21875 118.585938 65.078125 122.886719 59.546875 130.273438 C 59.40625 130.464844 59.726562 130.648438 59.867188 130.460938 Z M 59.867188 130.457031"/><path fill="#FFF" d="M 86.03125 166.53125 C 85.335938 168.542969 84.882812 170.605469 84.679688 172.726562 C 84.578125 173.832031 84.648438 175.164062 85.59375 175.746094 C 86.441406 176.269531 87.636719 175.851562 88.207031 175.054688 C 88.777344 174.253906 88.835938 173.167969 88.667969 172.191406 C 88.523438 171.484375 88.320312 170.789062 88.066406 170.109375 C 87.601562 168.757812 87.097656 167.359375 86.097656 166.328125 L 85.839844 167.121094"/><path fill="#FFF" d="M 85.855469 166.480469 C 85.335938 168.046875 82.464844 176.835938 86.8125 176.113281 C 91.207031 175.386719 87.808594 168.03125 86.222656 166.1875 C 86.171875 166.140625 86.113281 166.125 86.042969 166.140625 C 85.976562 166.160156 85.933594 166.203125 85.910156 166.269531 L 85.660156 167.070312 C 85.585938 167.304688 85.945312 167.394531 86.019531 167.167969 C 86.277344 166.34375 86.75 167.503906 86.976562 167.90625 C 87.34375 168.628906 87.644531 169.375 87.878906 170.148438 C 88.425781 171.726562 89.324219 177.042969 85.96875 175.164062 C 84.878906 174.554688 84.828125 174.359375 84.835938 173.210938 C 84.871094 172.355469 84.972656 171.503906 85.148438 170.664062 C 85.398438 169.273438 85.753906 167.910156 86.214844 166.570312 C 86.289062 166.339844 85.929688 166.246094 85.855469 166.46875 Z M 85.855469 166.480469"/><path fill="#FFF" d="M 61.453125 154.578125 C 59.34375 154.882812 57.296875 155.433594 55.320312 156.234375 C 54.285156 156.648438 53.132812 157.324219 53.050781 158.433594 C 52.976562 159.421875 53.894531 160.28125 54.878906 160.417969 C 55.867188 160.554688 56.847656 160.109375 57.636719 159.503906 C 58.199219 159.050781 58.722656 158.550781 59.207031 158.015625 C 60.195312 156.976562 61.210938 155.886719 61.667969 154.53125 L 60.839844 154.675781"/><path fill="#FFF" d="M 61.394531 154.402344 C 59.945312 154.632812 49.738281 156.652344 53.582031 160.023438 C 56.566406 162.640625 60.917969 156.90625 61.839844 154.578125 C 61.894531 154.4375 61.734375 154.332031 61.605469 154.347656 L 60.78125 154.492188 C 60.546875 154.53125 60.644531 154.890625 60.875 154.851562 C 61.960938 154.660156 60.359375 156.429688 60.15625 156.675781 C 59.816406 157.09375 59.4375 157.488281 59.0625 157.878906 C 57.992188 159.003906 56.484375 160.675781 54.757812 160.113281 C 53.519531 160.027344 53.191406 159.109375 53.773438 157.359375 C 54.125 157.039062 54.519531 156.777344 54.953125 156.582031 C 55.664062 156.25 56.398438 155.972656 57.152344 155.757812 C 58.574219 155.308594 60.019531 154.976562 61.492188 154.753906 C 61.722656 154.714844 61.625 154.359375 61.394531 154.394531 Z M 61.394531 154.402344"/><path fill="#FFF" d="M 55.4375 137.675781 C 53.492188 136.804688 51.46875 136.171875 49.371094 135.785156 C 48.277344 135.582031 46.941406 135.535156 46.273438 136.425781 C 45.679688 137.21875 45.988281 138.441406 46.738281 139.082031 C 47.488281 139.722656 48.566406 139.875 49.554688 139.789062 C 50.273438 139.703125 50.984375 139.566406 51.683594 139.371094 C 53.074219 139.023438 54.519531 138.652344 55.625 137.753906 L 54.847656 137.429688"/><path fill="#FFF" d="M 55.53125 137.515625 C 53.875 136.796875 46.023438 133.316406 45.777344 137.324219 C 45.476562 142.097656 53.910156 139.214844 55.746094 137.910156 C 55.816406 137.867188 55.84375 137.808594 55.835938 137.730469 C 55.824219 137.648438 55.78125 137.597656 55.703125 137.574219 L 54.925781 137.25 C 54.691406 137.160156 54.609375 137.519531 54.828125 137.609375 C 55.46875 137.875 55.058594 137.945312 54.53125 138.246094 C 53.867188 138.628906 52.996094 138.839844 52.25 139.039062 C 51.703125 139.1875 51.152344 139.335938 50.59375 139.4375 C 50.058594 139.5625 49.519531 139.625 48.96875 139.625 C 47.664062 139.800781 47.230469 139.152344 47.660156 137.683594 C 46.921875 136.238281 47.167969 135.628906 48.402344 135.851562 L 49.328125 135.960938 C 49.953125 136.0625 50.582031 136.21875 51.183594 136.378906 C 52.609375 136.753906 53.996094 137.242188 55.34375 137.835938 C 55.558594 137.929688 55.746094 137.605469 55.527344 137.515625 Z M 55.53125 137.515625"/><path fill="#FFF" d="M 37.632812 118.296875 C 36.875 114.363281 36.496094 110.15625 37.957031 106.414062 C 38.785156 104.28125 40.171875 102.414062 41.667969 100.691406 C 47.910156 93.546875 56.398438 88.589844 65.394531 85.550781 C 74.390625 82.511719 83.925781 81.308594 93.410156 80.816406 C 96.769531 80.644531 100.253906 80.585938 103.347656 81.898438 C 93.597656 78.167969 82.820312 77.363281 72.511719 79.019531 C 62.199219 80.675781 52.335938 84.734375 43.527344 90.316406 C 38.636719 93.410156 33.691406 97.527344 32.753906 103.226562 C 32.207031 106.550781 33.125 109.9375 34.101562 113.152344 C 34.707031 115.15625 35.773438 117.523438 37.867188 117.679688"/><path fill="#FFF" d="M 37.804688 118.246094 C 37.164062 114.777344 36.738281 111.140625 37.726562 107.679688 C 38.730469 104.164062 41.203125 101.292969 43.742188 98.746094 C 48.035156 94.433594 53.179688 91.019531 58.679688 88.4375 C 70.273438 83.011719 84.035156 80.726562 96.785156 80.914062 C 98.46875 80.9375 100.078125 81.417969 101.714844 81.527344 C 102.875 81.609375 102.800781 81.703125 101.714844 81.113281 C 101.253906 80.859375 100.539062 80.71875 100.015625 80.554688 C 97.144531 79.675781 94.222656 79.03125 91.25 78.613281 C 84.972656 77.746094 78.710938 77.824219 72.457031 78.84375 C 61.09375 80.664062 49.457031 85.367188 40.269531 92.328125 C 36.152344 95.449219 32.5 99.636719 32.398438 105.050781 C 32.339844 108.152344 33.167969 111.5625 34.324219 114.425781 C 34.996094 116.089844 35.949219 117.511719 37.804688 117.859375 C 38.035156 117.902344 38.136719 117.546875 37.902344 117.5 C 33.960938 116.769531 32.925781 109.175781 32.78125 105.957031 C 32.589844 101.707031 34.605469 98.023438 37.570312 95.109375 C 42.871094 89.90625 50.269531 86.277344 57.09375 83.542969 C 71.800781 77.632812 88.308594 76.5 103.296875 82.085938 C 103.53125 82.171875 103.617188 81.816406 103.394531 81.730469 C 99.871094 80.371094 96.207031 80.480469 92.496094 80.6875 C 88.789062 80.898438 85.117188 81.21875 81.457031 81.71875 C 73.828125 82.761719 66.273438 84.601562 59.246094 87.785156 C 52.824219 90.699219 46.839844 94.726562 42.089844 99.960938 C 39.964844 102.304688 38.054688 104.894531 37.261719 108.003906 C 36.394531 111.398438 36.832031 114.960938 37.457031 118.351562 C 37.496094 118.585938 37.855469 118.488281 37.8125 118.257812 Z M 37.804688 118.246094"/><path fill="#FFBF8F" d="M 32.386719 128.902344 C 31.027344 132.582031 30.546875 136.367188 30.945312 140.269531 C 30.988281 140.6875 31.0625 141.144531 31.382812 141.425781 C 31.6875 141.636719 32.027344 141.734375 32.398438 141.714844 C 34.351562 141.816406 36.265625 141.574219 38.128906 140.984375 C 35.785156 140.554688 34.117188 138.386719 33.359375 136.128906 C 32.601562 133.871094 32.53125 131.453125 32.0625 129.121094"/><path fill="#FFBF8F" d="M 32.207031 128.855469 C 31.496094 130.828125 31.019531 132.859375 30.777344 134.945312 C 30.605469 136.515625 30.082031 139.476562 30.882812 140.957031 C 32.042969 143.105469 36.375 141.6875 38.179688 141.171875 C 38.265625 141.140625 38.308594 141.082031 38.308594 140.992188 C 38.308594 140.902344 38.265625 140.84375 38.179688 140.8125 C 32.984375 139.433594 33.019531 133.339844 32.238281 129.074219 C 32.195312 128.84375 31.839844 128.941406 31.882812 129.171875 C 32.34375 131.734375 32.417969 134.472656 33.453125 136.894531 C 33.785156 137.695312 34.230469 138.425781 34.785156 139.09375 C 35.421875 139.851562 36.445312 140.164062 37.03125 140.824219 C 37.566406 141.429688 37.375 140.734375 37.28125 141.035156 C 37.199219 141.289062 35.082031 141.445312 34.882812 141.464844 C 34.3125 141.523438 33.398438 141.671875 32.8125 141.539062 C 31.347656 141.207031 31.171875 139.742188 31.007812 138.496094 C 30.597656 135.375 31.542969 131.867188 32.566406 128.957031 C 32.644531 128.726562 32.285156 128.636719 32.207031 128.859375 Z M 32.207031 128.855469"/><path fill="#FFBF8F" d="M 36.34375 165.808594 C 37.800781 168.332031 39.445312 170.726562 41.277344 172.992188 C 43.113281 175.257812 45.109375 177.367188 47.277344 179.320312 C 49.441406 181.273438 51.746094 183.042969 54.1875 184.636719 C 56.632812 186.230469 59.1875 187.621094 61.847656 188.816406 C 61.382812 187.472656 60.105469 186.617188 58.917969 185.839844 C 49.921875 179.921875 42.132812 172.710938 35.546875 164.207031 C 35.753906 165.070312 36.113281 165.867188 36.621094 166.59375 C 37.132812 167.324219 37.757812 167.933594 38.5 168.425781"/><path fill="#FFBF8F" d="M 36.179688 165.902344 C 37.652344 168.421875 39.308594 170.816406 41.152344 173.085938 C 42.996094 175.351562 45 177.464844 47.171875 179.421875 C 49.339844 181.378906 51.648438 183.160156 54.09375 184.761719 C 56.539062 186.363281 59.09375 187.769531 61.753906 188.976562 C 61.839844 189.023438 61.914062 189.011719 61.980469 188.945312 C 62.046875 188.878906 62.054688 188.804688 62.011719 188.722656 C 61.023438 186.59375 58.765625 185.550781 56.910156 184.265625 C 54.039062 182.265625 51.285156 180.121094 48.648438 177.824219 C 43.878906 173.65625 39.550781 169.074219 35.664062 164.074219 C 35.546875 163.925781 35.304688 164.089844 35.351562 164.257812 C 35.851562 166.058594 36.863281 167.5 38.386719 168.589844 C 38.578125 168.730469 38.761719 168.410156 38.574219 168.265625 C 37.949219 167.804688 34.421875 163.164062 36.71875 165.988281 C 37.6875 167.1875 38.6875 168.363281 39.714844 169.515625 C 41.769531 171.816406 43.933594 174.015625 46.207031 176.117188 C 48.28125 178.035156 50.433594 179.859375 52.667969 181.59375 C 55.160156 183.527344 58.265625 185.074219 60.53125 187.246094 C 62.453125 189.097656 60.125 187.816406 59.140625 187.3125 C 57.75 186.601562 56.410156 185.828125 55.09375 185 C 52.472656 183.355469 50.003906 181.503906 47.691406 179.449219 C 43.230469 175.460938 39.5 170.886719 36.496094 165.714844 C 36.433594 165.621094 36.351562 165.605469 36.253906 165.660156 C 36.152344 165.71875 36.128906 165.796875 36.179688 165.902344 Z M 36.179688 165.902344"/><path fill="#FFBF8F" d="M 78.578125 193.667969 C 82.488281 194.695312 86.664062 194.308594 90.5625 193.222656 C 94.457031 192.140625 98.121094 190.378906 101.765625 188.625 C 97.238281 188.1875 93.269531 191.441406 88.90625 192.71875 C 85.382812 193.75 81.621094 193.472656 77.960938 193.179688 C 78.027344 193.324219 78.128906 193.433594 78.269531 193.507812 C 78.410156 193.582031 78.558594 193.609375 78.714844 193.585938"/><path fill="#FFBF8F" d="M 78.527344 193.847656 C 86.785156 195.792969 94.5625 192.289062 101.859375 188.785156 C 102.035156 188.699219 101.9375 188.449219 101.765625 188.4375 C 98.257812 188.261719 95.320312 189.828125 92.210938 191.234375 C 87.515625 193.34375 83.007812 193.386719 77.960938 192.996094 C 77.878906 193 77.824219 193.039062 77.792969 193.113281 C 77.761719 193.1875 77.773438 193.257812 77.832031 193.316406 C 78.238281 193.746094 78.078125 193.664062 78.667969 193.777344 C 78.898438 193.820312 79 193.460938 78.761719 193.421875 C 82.203125 193.996094 85.601562 193.824219 88.964844 192.90625 C 92.335938 191.941406 95.273438 189.804688 98.703125 189.042969 C 98.628906 189.0625 101.023438 188.550781 100.835938 188.878906 C 100.5625 189.363281 98.886719 189.804688 98.300781 190.078125 C 96.066406 191.136719 93.769531 192.042969 91.410156 192.792969 C 87.238281 194.070312 82.917969 194.511719 78.632812 193.5 C 78.402344 193.445312 78.300781 193.800781 78.535156 193.859375 Z M 78.527344 193.847656"/><path fill="#44301F" d="M 130.164062 189.054688 L 128.0625 186.972656 C 128.074219 186.972656 129.078125 185.953125 129.484375 185.507812 C 140.167969 173.96875 146.050781 158.675781 146.050781 142.460938 C 146.050781 107.535156 117.570312 79.128906 82.5625 79.128906 C 63.332031 79.128906 49.089844 84.878906 37.753906 97.21875 L 35.566406 95.214844 C 47.339844 82.398438 62.714844 76.167969 82.5625 76.167969 C 119.195312 76.167969 149.019531 105.90625 149.019531 142.460938 C 149.019531 159.433594 142.859375 175.429688 131.675781 187.503906 C 131.234375 187.984375 130.207031 189.011719 130.164062 189.054688 Z M 130.164062 189.054688"/><path fill="#44301F" d="M 77.320312 68.414062 C 77.792969 63.789062 76.035156 58.761719 74.476562 54.464844 C 72.863281 50.03125 70.785156 45.742188 68.101562 41.855469 C 62.882812 34.304688 55.445312 28.34375 46.550781 25.730469 C 44.53125 25.144531 42.476562 24.75 40.382812 24.550781 C 38.347656 24.347656 35.589844 24.015625 33.613281 24.699219 C 30.367188 25.820312 31.960938 31.929688 32.394531 34.378906 C 34.019531 43.421875 39.121094 51.777344 46.046875 57.769531 C 54.144531 64.78125 64.390625 68.765625 74.921875 70.28125 C 76.792969 70.546875 77.597656 67.695312 75.710938 67.425781 C 59.570312 65.121094 43.667969 56.460938 37.320312 40.738281 C 35.757812 36.953125 34.917969 33.011719 34.789062 28.917969 C 34.789062 28.65625 34.679688 27.457031 34.789062 27.347656 C 34.769531 27.363281 35.660156 27.425781 35.664062 27.421875 C 36.519531 27.25 37.542969 27.351562 38.417969 27.378906 C 40.648438 27.457031 42.84375 27.789062 45 28.375 C 53.03125 30.515625 59.957031 35.710938 64.828125 42.363281 C 67.542969 46.113281 69.707031 50.152344 71.320312 54.488281 C 72.925781 58.742188 74.808594 63.820312 74.335938 68.414062 C 74.140625 70.308594 77.117188 70.292969 77.300781 68.414062 Z M 77.320312 68.414062"/><path fill="#44301F" d="M 87.902344 68.832031 C 87.566406 64.867188 89.296875 60.335938 90.84375 56.722656 C 92.394531 53.109375 94.445312 49.714844 97.082031 46.820312 C 99.679688 43.9375 102.746094 41.703125 106.289062 40.113281 C 108.085938 39.320312 109.957031 38.753906 111.894531 38.414062 C 112.914062 38.238281 113.945312 38.140625 114.980469 38.125 C 115.160156 38.125 117.585938 38.082031 117.121094 37.742188 C 117.804688 38.242188 116.667969 43.015625 116.542969 43.582031 C 116.105469 45.511719 115.464844 47.367188 114.617188 49.15625 C 112.941406 52.652344 110.671875 55.707031 107.808594 58.320312 C 101.910156 63.714844 94.242188 66.59375 86.414062 67.734375 C 84.53125 68.007812 85.332031 70.859375 87.203125 70.585938 C 101.398438 68.519531 115.164062 59.972656 119.113281 45.511719 C 119.730469 43.253906 121.074219 38.582031 119.761719 36.421875 C 118.410156 34.203125 113.578125 35.160156 111.488281 35.496094 C 104.453125 36.636719 98.089844 40.769531 93.683594 46.265625 C 91.234375 49.335938 89.277344 52.691406 87.8125 56.332031 C 86.261719 60.132812 84.578125 64.65625 84.9375 68.820312 C 85.097656 70.707031 88.066406 70.722656 87.902344 68.820312 Z M 87.902344 68.832031"/><path fill="#44301F" d="M 35.609375 95.160156 C 31.140625 99.582031 31.136719 106.914062 32.546875 112.65625 C 33.242188 115.488281 34.542969 118.335938 36.847656 120.214844 C 39.554688 122.421875 42.917969 122.542969 46.242188 122.117188 C 49.722656 121.675781 54.851562 120.550781 56.660156 124.589844 C 58 127.574219 57.53125 130.980469 59.429688 133.804688 C 60.785156 135.820312 63.023438 137.324219 65.515625 137.34375 C 68.554688 137.363281 69.570312 135.359375 71.261719 133.273438 C 75.324219 128.257812 81.992188 126.734375 87.957031 129.046875 C 94.023438 131.402344 97.75 137.738281 97.039062 144.164062 C 96.761719 146.648438 95.863281 149.179688 94.339844 151.179688 C 93.609375 152.148438 92.871094 152.703125 92.410156 153.859375 C 91.832031 155.296875 91.433594 156.78125 91.214844 158.316406 C 90.808594 161.253906 91.171875 164.332031 93.09375 166.695312 C 95.128906 169.203125 98.320312 170.019531 101.394531 170.359375 C 105.289062 170.792969 113.222656 170.851562 111.9375 176.859375 C 111.175781 180.402344 110.960938 183.609375 112.972656 186.84375 C 116.738281 192.890625 124.9375 193.613281 130.164062 189.054688 C 131.601562 187.796875 129.496094 185.710938 128.0625 186.960938 C 122.175781 192.097656 112.921875 187.054688 114.371094 179.273438 C 114.917969 176.34375 115.648438 174.011719 113.578125 171.453125 C 111.722656 169.183594 108.984375 168.214844 106.15625 167.84375 C 102.742188 167.382812 98.210938 167.859375 95.621094 165.105469 C 93.300781 162.636719 93.808594 158.554688 94.902344 155.621094 C 95.679688 153.539062 97.5625 151.953125 98.496094 149.863281 C 99.425781 147.777344 99.949219 145.589844 100.0625 143.308594 C 100.613281 132.4375 90.722656 123.789062 80.03125 125.136719 C 77.464844 125.449219 75.105469 126.316406 72.949219 127.742188 C 71.917969 128.433594 70.96875 129.222656 70.101562 130.113281 C 69.066406 131.183594 68.371094 132.78125 67.285156 133.742188 C 64.699219 136.027344 61.664062 132.386719 60.96875 130.125 C 60.128906 127.375 60.300781 124.339844 58.558594 121.90625 C 56.773438 119.417969 53.707031 118.625 50.777344 118.667969 C 46.808594 118.71875 42.09375 120.730469 38.660156 117.871094 C 35.949219 115.605469 35.101562 111.589844 34.835938 108.234375 C 34.535156 104.371094 34.808594 100.136719 37.707031 97.253906 C 39.066406 95.910156 36.964844 93.816406 35.609375 95.160156 Z M 35.609375 95.160156"/><path fill="#44301F" d="M 90.597656 158.03125 C 87.679688 160.628906 83.289062 158.699219 80.628906 161.882812 C 78.273438 164.703125 77.6875 169.242188 76.6875 172.679688 C 75.355469 177.230469 74.0625 181.789062 72.804688 186.355469 C 71.996094 189.289062 69.402344 194.945312 71.238281 197.921875 C 72.859375 200.574219 77.792969 200.699219 80.457031 200.710938 C 84.726562 200.710938 88.96875 200.386719 93.089844 199.242188 C 101.203125 196.984375 109.367188 194.316406 116.492188 189.722656 C 118.09375 188.691406 116.605469 186.125 114.996094 187.164062 C 108.765625 191.179688 101.808594 193.601562 94.738281 195.679688 C 91.105469 196.75 87.640625 197.484375 83.839844 197.652344 C 81.414062 197.757812 74.332031 198.589844 73.707031 195.539062 C 73.363281 193.863281 74.585938 191.0625 75.03125 189.425781 C 75.574219 187.445312 76.121094 185.46875 76.675781 183.488281 C 77.699219 179.835938 78.742188 176.191406 79.808594 172.550781 C 80.601562 169.835938 81.234375 163.859375 84.34375 162.785156 C 85.832031 162.273438 87.570312 162.628906 89.105469 162.199219 C 90.484375 161.816406 91.628906 161.058594 92.683594 160.117188 C 94.113281 158.847656 92.007812 156.761719 90.585938 158.035156 Z M 90.597656 158.03125"/><path fill="#44301F" d="M 69.679688 154.632812 C 67.90625 152.570312 67.25 149.898438 65.554688 147.878906 C 64.113281 146.152344 61.847656 145.96875 59.730469 146.15625 C 57.015625 146.390625 54.488281 147.421875 51.863281 148.082031 C 48.769531 148.851562 45.574219 149.082031 42.460938 149.738281 C 39.625 150.339844 36.875 151.25 34.144531 152.203125 C 31.71875 153.046875 29.234375 153.753906 27.953125 156.179688 C 25.746094 160.378906 28.449219 165.566406 30.382812 169.34375 C 34.992188 178.320312 42.253906 185.765625 50.605469 191.347656 C 54.402344 193.890625 59.417969 197.300781 64.15625 195.242188 C 68.929688 193.160156 70.078125 187.609375 71.25 183.101562 L 74.171875 171.792969 C 74.929688 168.855469 76.332031 165.503906 76.164062 162.429688 C 76.035156 160.019531 74.542969 158.570312 72.652344 157.28125 C 69.777344 155.308594 67.699219 153.097656 66.605469 149.71875 C 66.015625 147.914062 63.152344 148.6875 63.742188 150.503906 C 64.285156 152.242188 65.09375 153.847656 66.164062 155.316406 C 67.238281 156.785156 68.523438 158.042969 70.015625 159.089844 C 70.804688 159.644531 71.8125 160.101562 72.453125 160.84375 C 73.492188 162.050781 73.1875 163.527344 72.871094 164.9375 C 72.277344 167.605469 71.507812 170.246094 70.820312 172.886719 C 69.566406 177.746094 68.632812 182.835938 66.929688 187.554688 C 66.246094 189.441406 65.140625 191.460938 63.265625 192.410156 C 60.507812 193.796875 57.433594 192.074219 55.0625 190.664062 C 47.851562 186.386719 41.34375 180.679688 36.53125 173.796875 C 34.117188 170.351562 31.875 166.488281 30.621094 162.464844 C 29.695312 159.492188 30.019531 156.886719 33.207031 155.679688 C 35.476562 154.820312 37.804688 154.042969 40.144531 153.382812 C 45.417969 151.890625 50.875 151.441406 56.144531 149.925781 C 58.726562 149.183594 62.171875 148.035156 63.828125 150.742188 C 65.085938 152.824219 65.953125 154.855469 67.570312 156.730469 C 68.816406 158.179688 70.90625 156.074219 69.65625 154.648438 Z M 69.679688 154.632812"/><path fill="#44301F" d="M 63.164062 135.921875 C 62.933594 139.066406 59.640625 140.160156 57.023438 140.777344 C 54.070312 141.472656 51.09375 142.074219 48.132812 142.722656 L 38.980469 144.722656 C 36.082031 145.355469 32.765625 146.625 29.808594 146.730469 C 28.882812 146.761719 28.4375 146.867188 27.898438 145.789062 C 27.566406 145.125 27.550781 144.167969 27.488281 143.441406 C 27.382812 142.054688 27.355469 140.667969 27.40625 139.277344 C 27.472656 136.476562 27.789062 133.699219 28.355469 130.953125 C 29.546875 125.277344 31.675781 119.980469 34.75 115.0625 C 35.757812 113.445312 33.191406 111.949219 32.199219 113.570312 C 28.378906 119.691406 25.960938 126.324219 24.9375 133.460938 C 24.425781 137.019531 22.5 149.472656 28.398438 149.90625 C 29.949219 150.019531 31.785156 149.320312 33.289062 148.980469 L 39.289062 147.671875 L 51.808594 144.933594 C 57.28125 143.738281 65.613281 143.039062 66.132812 135.914062 C 66.273438 134.011719 63.304688 134.019531 63.164062 135.914062 Z M 63.164062 135.921875"/><path fill="#FF7285" d="M 60.117188 99.65625 L 64.914062 92.738281 C 66 91.164062 63.429688 89.683594 62.363281 91.242188 L 57.566406 98.160156 C 56.476562 99.730469 59.050781 101.214844 60.128906 99.65625 Z M 60.117188 99.65625"/><path fill="#FF7285" d="M 125 160.132812 C 125.253906 161.714844 125.589844 163.277344 126.007812 164.824219 C 126.335938 166.03125 127.285156 167.660156 127.183594 168.871094 C 127.179688 169.136719 127.242188 169.382812 127.375 169.613281 C 127.507812 169.839844 127.6875 170.019531 127.921875 170.148438 L 128.023438 170.199219 C 128.691406 170.515625 129.253906 170.40625 129.820312 169.96875 L 129.921875 169.890625 C 130.726562 169.265625 130.328125 168.039062 129.621094 167.5625 L 129.574219 167.53125 C 127.980469 166.476562 126.492188 169.039062 128.078125 170.085938 L 128.125 170.121094 L 127.824219 167.792969 L 127.71875 167.875 L 129.519531 167.644531 L 129.417969 167.59375 L 130.152344 168.871094 C 130.265625 167.484375 129.4375 166.03125 129.054688 164.707031 C 128.550781 162.945312 128.152344 161.164062 127.863281 159.355469 C 127.554688 157.480469 124.691406 158.273438 125 160.144531 Z M 125 160.132812"/><path fill="#FF7285" d="M 125.308594 117.539062 L 129.019531 119.289062 C 129.742188 119.628906 130.617188 119.488281 131.046875 118.757812 C 131.425781 118.113281 131.242188 117.078125 130.515625 116.730469 L 126.808594 114.984375 C 126.082031 114.640625 125.207031 114.78125 124.777344 115.511719 C 124.398438 116.15625 124.582031 117.195312 125.308594 117.539062 Z M 125.308594 117.539062"/><path fill="#FF7285" d="M 87.457031 112.625 C 88.523438 112.550781 89.449219 112.144531 90.226562 111.410156 C 90.363281 111.273438 90.46875 111.113281 90.542969 110.929688 C 90.617188 110.75 90.652344 110.5625 90.652344 110.363281 C 90.652344 110.167969 90.617188 109.980469 90.542969 109.800781 C 90.46875 109.617188 90.363281 109.457031 90.226562 109.320312 C 90.082031 109.183594 89.921875 109.078125 89.742188 109.007812 C 89.558594 108.933594 89.371094 108.898438 89.175781 108.898438 C 88.980469 108.898438 88.792969 108.933594 88.609375 109.007812 C 88.429688 109.078125 88.265625 109.183594 88.125 109.320312 L 87.96875 109.460938 C 88.125 109.339844 88.136719 109.328125 88.011719 109.421875 L 87.6875 109.605469 C 87.585938 109.652344 87.621094 109.636719 87.792969 109.558594 C 87.726562 109.585938 87.660156 109.605469 87.589844 109.625 C 87.492188 109.652344 87.03125 109.707031 87.457031 109.664062 C 86.6875 109.738281 85.9375 110.292969 85.972656 111.144531 C 86.007812 111.882812 86.628906 112.703125 87.457031 112.625 Z M 87.457031 112.625"/><path fill="#FFFAC5" d="M 87.449219 92.855469 C 89.148438 94.199219 90.96875 95.355469 92.910156 96.328125 C 94.613281 97.167969 96.121094 94.613281 94.40625 93.769531 C 92.683594 92.933594 91.058594 91.933594 89.539062 90.765625 C 88.902344 90.265625 88.0625 90.15625 87.441406 90.765625 C 86.921875 91.269531 86.808594 92.363281 87.441406 92.855469 Z M 87.449219 92.855469"/><path fill="#FFFAC5" d="M 126.628906 139.953125 L 130.074219 141.21875 C 130.828125 141.496094 131.695312 140.90625 131.902344 140.183594 C 132.132812 139.355469 131.617188 138.640625 130.863281 138.363281 L 127.417969 137.089844 C 126.664062 136.8125 125.792969 137.398438 125.59375 138.121094 C 125.359375 138.949219 125.871094 139.664062 126.628906 139.941406 Z M 126.628906 139.953125"/><path fill="#FFFAC5" d="M 114.414062 97.546875 L 117.136719 97.546875 C 119.046875 97.546875 119.046875 94.585938 117.136719 94.585938 L 114.414062 94.585938 C 112.503906 94.585938 112.503906 97.546875 114.414062 97.546875 Z M 114.414062 97.546875"/><path fill="#FFFAC5" d="M 110.121094 134.644531 L 111.113281 135.871094 C 111.40625 136.160156 111.753906 136.304688 112.164062 136.304688 C 112.574219 136.300781 112.921875 136.15625 113.214844 135.871094 C 113.503906 135.582031 113.648438 135.230469 113.648438 134.824219 C 113.625 134.425781 113.480469 134.074219 113.214844 133.777344 L 112.21875 132.550781 C 111.929688 132.261719 111.578125 132.117188 111.167969 132.117188 C 110.757812 132.117188 110.410156 132.261719 110.121094 132.550781 C 109.828125 132.839844 109.683594 133.1875 109.683594 133.59375 C 109.703125 133.996094 109.851562 134.34375 110.121094 134.644531 Z M 110.121094 134.644531"/><path fill="#FF9E49" d="M 69.023438 109.273438 L 70.082031 113.269531 C 70.570312 115.121094 73.433594 114.328125 72.945312 112.484375 L 71.886719 108.488281 C 71.402344 106.636719 68.539062 107.425781 69.027344 109.273438 Z M 69.023438 109.273438"/><path fill="#FF9E49" d="M 106.574219 119.628906 C 107.144531 116.964844 107.859375 114.34375 108.726562 111.761719 C 109.332031 109.953125 106.46875 109.175781 105.863281 110.976562 C 104.996094 113.554688 104.28125 116.171875 103.710938 118.828125 C 103.3125 120.679688 106.171875 121.484375 106.574219 119.617188 Z M 106.574219 119.628906"/><path fill="#FF9E49" d="M 110.035156 149.957031 L 109.453125 154.136719 C 109.339844 154.929688 109.644531 155.726562 110.488281 155.957031 C 111.183594 156.148438 112.203125 155.726562 112.316406 154.921875 L 112.898438 150.742188 C 113.011719 149.949219 112.707031 149.152344 111.863281 148.921875 C 111.167969 148.730469 110.148438 149.152344 110.039062 149.957031 Z M 110.035156 149.957031"/><path fill="#FF9E49" d="M 44.191406 108.40625 C 44.066406 109.625 44.152344 110.824219 44.449219 112.011719 C 44.894531 113.859375 47.757812 113.078125 47.3125 111.222656 C 47.09375 110.292969 47.042969 109.355469 47.160156 108.40625 C 47.246094 107.613281 46.414062 106.925781 45.675781 106.925781 C 44.800781 106.925781 44.285156 107.609375 44.191406 108.40625 Z M 44.191406 108.40625"/><path fill="#FF9E49" d="M 136.851562 151.855469 L 138.09375 154.078125 C 138.191406 154.246094 138.320312 154.386719 138.476562 154.507812 C 138.632812 154.625 138.808594 154.707031 138.996094 154.753906 C 139.1875 154.804688 139.378906 154.816406 139.574219 154.789062 C 139.765625 154.761719 139.949219 154.699219 140.117188 154.601562 C 140.289062 154.503906 140.429688 154.375 140.550781 154.21875 C 140.667969 154.0625 140.753906 153.890625 140.804688 153.703125 C 140.855469 153.511719 140.867188 153.320312 140.839844 153.128906 C 140.8125 152.933594 140.753906 152.753906 140.65625 152.582031 L 139.414062 150.363281 C 139.3125 150.195312 139.1875 150.050781 139.027344 149.933594 C 138.871094 149.816406 138.699219 149.734375 138.507812 149.683594 C 138.320312 149.636719 138.128906 149.625 137.933594 149.652344 C 137.738281 149.675781 137.558594 149.742188 137.386719 149.839844 C 137.21875 149.9375 137.074219 150.066406 136.957031 150.21875 C 136.835938 150.375 136.753906 150.546875 136.703125 150.738281 C 136.652344 150.925781 136.640625 151.117188 136.667969 151.3125 C 136.691406 151.503906 136.753906 151.6875 136.851562 151.855469 Z M 136.851562 151.855469"/></svg>