<svg xmlns="http://www.w3.org/2000/svg" xmlns:xlink="http://www.w3.org/1999/xlink" width="300" zoomAndPan="magnify" viewBox="0 0 412.5 225" height="300" preserveAspectRatio="xMidYMid meet" version="1.0"><defs><g><g id="id1"/></g><clipPath id="id2"><path d="M 22.5 71 L 159.75 71 L 159.75 209 L 22.5 209 Z M 22.5 71 " clip-rule="nonzero"/></clipPath><clipPath id="id3"><path d="M 30 16.273438 L 84 16.273438 L 84 70 L 30 70 Z M 30 16.273438 " clip-rule="nonzero"/></clipPath></defs><g fill="rgb(26.669312%, 18.818665%, 12.159729%)" fill-opacity="1"><g transform="translate(181.161603, 164.995961)"><g><path d="M 0.296875 -50.625 C 0.296875 -51.9375 1.191406 -53.070312 2.984375 -54.03125 C 4.785156 -54.988281 6.570312 -55.46875 8.34375 -55.46875 C 9.257812 -55.46875 9.941406 -55.300781 10.390625 -54.96875 C 10.847656 -54.644531 11.304688 -54.082031 11.765625 -53.28125 L 22.390625 -33.765625 L 32.9375 -53.28125 C 33.695312 -54.738281 34.835938 -55.46875 36.359375 -55.46875 C 38.117188 -55.46875 39.894531 -54.988281 41.6875 -54.03125 C 43.488281 -53.070312 44.390625 -51.9375 44.390625 -50.625 C 44.390625 -50.269531 44.34375 -49.988281 44.25 -49.78125 L 28.609375 -23.75 C 28.410156 -23.445312 28.3125 -23.09375 28.3125 -22.6875 L 28.3125 -3.640625 C 28.3125 -2.472656 27.726562 -1.570312 26.5625 -0.9375 C 25.394531 -0.3125 24 0 22.375 0 C 20.757812 0 19.367188 -0.3125 18.203125 -0.9375 C 17.046875 -1.570312 16.46875 -2.472656 16.46875 -3.640625 L 16.46875 -22.6875 C 16.46875 -23.09375 16.367188 -23.445312 16.171875 -23.75 L 0.453125 -49.78125 C 0.347656 -49.988281 0.296875 -50.269531 0.296875 -50.625 Z M 0.296875 -50.625 "/></g></g></g><g fill="rgb(26.669312%, 18.818665%, 12.159729%)" fill-opacity="1"><g transform="translate(225.937055, 164.995961)"><g><path d="M 3.875 -17.453125 L 3.875 -51.90625 C 3.875 -53.070312 4.441406 -53.957031 5.578125 -54.5625 C 6.710938 -55.164062 8.117188 -55.46875 9.796875 -55.46875 C 11.410156 -55.46875 12.796875 -55.164062 13.953125 -54.5625 C 15.117188 -53.957031 15.703125 -53.070312 15.703125 -51.90625 L 15.703125 -17.453125 C 15.703125 -12.390625 18.128906 -9.859375 22.984375 -9.859375 C 27.847656 -9.859375 30.28125 -12.390625 30.28125 -17.453125 L 30.28125 -51.90625 C 30.28125 -53.070312 30.847656 -53.957031 31.984375 -54.5625 C 33.128906 -55.164062 34.535156 -55.46875 36.203125 -55.46875 C 37.816406 -55.46875 39.207031 -55.164062 40.375 -54.5625 C 41.539062 -53.957031 42.125 -53.070312 42.125 -51.90625 L 42.125 -17.453125 C 42.125 -11.285156 40.375 -6.757812 36.875 -3.875 C 33.382812 -0.988281 28.757812 0.453125 23 0.453125 C 17.175781 0.453125 12.53125 -0.988281 9.0625 -3.875 C 5.601562 -6.757812 3.875 -11.285156 3.875 -17.453125 Z M 3.875 -17.453125 "/></g></g></g><g fill="rgb(26.669312%, 18.818665%, 12.159729%)" fill-opacity="1"><g transform="translate(271.926761, 164.995961)"><g><path d="M 4.09375 -3.640625 L 4.09375 -49.5625 C 4.09375 -51.582031 4.660156 -53.070312 5.796875 -54.03125 C 6.941406 -54.988281 8.347656 -55.46875 10.015625 -55.46875 C 12.296875 -55.46875 14.03125 -55.125 15.21875 -54.4375 C 16.40625 -53.757812 17.734375 -52.132812 19.203125 -49.5625 L 27.015625 -35.890625 L 34.828125 -49.5625 C 36.296875 -52.132812 37.625 -53.757812 38.8125 -54.4375 C 40 -55.125 41.734375 -55.46875 44.015625 -55.46875 C 45.679688 -55.46875 47.082031 -54.988281 48.21875 -54.03125 C 49.363281 -53.070312 49.9375 -51.582031 49.9375 -49.5625 L 49.9375 -3.640625 C 49.9375 -2.472656 49.351562 -1.570312 48.1875 -0.9375 C 47.019531 -0.3125 45.628906 0 44.015625 0 C 42.398438 0 41.007812 -0.3125 39.84375 -0.9375 C 38.675781 -1.570312 38.09375 -2.472656 38.09375 -3.640625 L 38.09375 -32.109375 L 30.8125 -19.65625 C 29.945312 -18.1875 28.628906 -17.453125 26.859375 -17.453125 C 25.140625 -17.453125 23.898438 -18.1875 23.140625 -19.65625 L 15.9375 -32.859375 L 15.9375 -3.640625 C 15.9375 -2.472656 15.351562 -1.570312 14.1875 -0.9375 C 13.03125 -0.3125 11.640625 0 10.015625 0 C 8.398438 0 7.007812 -0.3125 5.84375 -0.9375 C 4.675781 -1.570312 4.09375 -2.472656 4.09375 -3.640625 Z M 4.09375 -3.640625 "/></g></g></g><g fill="rgb(26.669312%, 18.818665%, 12.159729%)" fill-opacity="1"><g transform="translate(325.96086, 164.995961)"><g><path d="M 0.6875 -3.109375 C 0.6875 -4.421875 1.113281 -5.8125 1.96875 -7.28125 L 23.375 -45.15625 L 5.765625 -45.15625 C 4.648438 -45.15625 3.773438 -45.660156 3.140625 -46.671875 C 2.515625 -47.679688 2.203125 -48.894531 2.203125 -50.3125 C 2.203125 -51.726562 2.503906 -52.941406 3.109375 -53.953125 C 3.710938 -54.960938 4.597656 -55.46875 5.765625 -55.46875 L 35.0625 -55.46875 C 37.332031 -55.46875 38.46875 -54.429688 38.46875 -52.359375 C 38.46875 -51.148438 38.039062 -49.757812 37.1875 -48.1875 L 15.78125 -10.328125 L 36.421875 -10.328125 C 37.484375 -10.328125 38.34375 -9.796875 39 -8.734375 C 39.664062 -7.671875 40 -6.476562 40 -5.15625 C 40 -3.84375 39.664062 -2.65625 39 -1.59375 C 38.34375 -0.53125 37.484375 0 36.421875 0 L 4.09375 0 C 1.820312 0 0.6875 -1.035156 0.6875 -3.109375 Z M 0.6875 -3.109375 "/></g></g></g><g fill="rgb(26.669312%, 18.818665%, 12.159729%)" fill-opacity="1"><g transform="translate(366.638218, 164.995961)"><g><path d="M 0.296875 -50.625 C 0.296875 -51.9375 1.191406 -53.070312 2.984375 -54.03125 C 4.785156 -54.988281 6.570312 -55.46875 8.34375 -55.46875 C 9.257812 -55.46875 9.941406 -55.300781 10.390625 -54.96875 C 10.847656 -54.644531 11.304688 -54.082031 11.765625 -53.28125 L 22.390625 -33.765625 L 32.9375 -53.28125 C 33.695312 -54.738281 34.835938 -55.46875 36.359375 -55.46875 C 38.117188 -55.46875 39.894531 -54.988281 41.6875 -54.03125 C 43.488281 -53.070312 44.390625 -51.9375 44.390625 -50.625 C 44.390625 -50.269531 44.34375 -49.988281 44.25 -49.78125 L 28.609375 -23.75 C 28.410156 -23.445312 28.3125 -23.09375 28.3125 -22.6875 L 28.3125 -3.640625 C 28.3125 -2.472656 27.726562 -1.570312 26.5625 -0.9375 C 25.394531 -0.3125 24 0 22.375 0 C 20.757812 0 19.367188 -0.3125 18.203125 -0.9375 C 17.046875 -1.570312 16.46875 -2.472656 16.46875 -3.640625 L 16.46875 -22.6875 C 16.46875 -23.09375 16.367188 -23.445312 16.171875 -23.75 L 0.453125 -49.78125 C 0.347656 -49.988281 0.296875 -50.269531 0.296875 -50.625 Z M 0.296875 -50.625 "/></g></g></g><g clip-path="url(#id2)"><path fill="rgb(26.669312%, 18.818665%, 12.159729%)" d="M 86.769531 71.882812 C 64.988281 71.882812 48.089844 78.753906 35.117188 92.871094 C 34.867188 93.121094 34.621094 93.390625 34.402344 93.65625 L 34.050781 94.035156 L 34.070312 94.058594 C 29.265625 100.136719 30.414062 108.695312 31.339844 112.726562 C 31.324219 112.746094 31.3125 112.769531 31.300781 112.789062 C 27.058594 119.570312 24.382812 126.917969 23.265625 134.832031 L 23.21875 135.144531 C 22.351562 141.28125 21.730469 148.800781 24.683594 152.457031 C 25.171875 153.074219 25.761719 153.5625 26.457031 153.925781 C 27.152344 154.292969 27.890625 154.5 28.675781 154.550781 C 30.082031 154.652344 31.527344 154.300781 32.832031 153.949219 C 30.523438 154.777344 28.117188 155.882812 26.695312 158.5625 C 23.898438 163.867188 26.984375 169.871094 29.234375 174.257812 L 29.292969 174.367188 C 34.078125 183.6875 41.777344 192.078125 51.550781 198.621094 L 51.675781 198.703125 C 55 200.929688 59.277344 203.792969 63.785156 203.792969 C 65.191406 203.796875 66.539062 203.515625 67.824219 202.949219 C 69.617188 202.164062 71.097656 200.988281 72.265625 199.421875 C 71.980469 201.46875 72.085938 203.476562 73.082031 205.09375 C 75.183594 208.511719 80.300781 208.960938 84.527344 208.964844 L 84.644531 208.964844 C 90.105469 208.964844 94.519531 208.441406 98.539062 207.324219 C 106.535156 205.09375 114.953125 202.414062 122.535156 197.863281 C 127.589844 200.714844 134.242188 200.050781 138.839844 196.105469 L 138.941406 196.035156 L 139.066406 195.894531 C 139.277344 195.683594 140.238281 194.714844 140.691406 194.214844 C 152.976562 180.941406 159.746094 163.367188 159.746094 144.722656 C 159.75 104.5625 127.015625 71.882812 86.769531 71.882812 Z M 81.777344 166.011719 C 81.585938 162.519531 79.367188 160.546875 77.21875 159.074219 C 76.367188 158.5 75.5625 157.859375 74.8125 157.15625 C 74.691406 156.9375 74.550781 156.734375 74.390625 156.542969 C 73.566406 155.585938 72.976562 154.421875 72.355469 153.195312 C 71.695312 151.898438 71.015625 150.550781 69.992188 149.332031 C 68.226562 147.21875 65.6875 146.789062 63.894531 146.757812 C 66.703125 145.613281 69.179688 143.859375 70.347656 140.894531 C 72.828125 140.316406 74.179688 138.550781 75.398438 136.96875 C 75.628906 136.667969 75.863281 136.359375 76.113281 136.050781 C 79.882812 131.390625 86.070312 129.835938 91.867188 132.089844 C 97.492188 134.273438 101.089844 140.261719 100.417969 146.347656 C 100.171875 148.777344 99.332031 150.976562 97.894531 152.949219 C 97.6875 153.222656 97.476562 153.464844 97.25 153.722656 C 96.535156 154.460938 95.980469 155.308594 95.582031 156.253906 C 95.136719 157.382812 94.777344 158.539062 94.511719 159.722656 C 94.378906 159.8125 94.25 159.910156 94.132812 160.019531 C 93.089844 160.945312 91.675781 161.132812 90.039062 161.347656 C 87.902344 161.625 85.246094 161.976562 83.273438 164.339844 C 82.695312 165.050781 82.199219 165.816406 81.785156 166.636719 C 81.792969 166.4375 81.804688 166.230469 81.785156 166.019531 Z M 81.777344 166.011719 " fill-opacity="1" fill-rule="nonzero"/></g><g clip-path="url(#id3)"><path fill="rgb(26.669312%, 18.818665%, 12.159729%)" d="M 31.265625 29.308594 C 33.003906 39.03125 38.542969 48.554688 46.484375 55.433594 C 54.859375 62.691406 65.871094 67.476562 78.335938 69.265625 C 78.507812 69.292969 78.683594 69.304688 78.855469 69.304688 C 79.839844 69.304688 80.675781 68.953125 81.363281 68.253906 C 81.828125 67.96875 82.207031 67.597656 82.496094 67.132812 C 82.785156 66.671875 82.957031 66.171875 83.007812 65.628906 C 83.574219 60.09375 81.429688 54.183594 79.867188 49.867188 C 78.117188 44.925781 75.769531 40.285156 72.824219 35.945312 C 66.722656 27.109375 58.183594 20.71875 48.757812 17.953125 C 46.480469 17.292969 44.164062 16.847656 41.808594 16.621094 L 41.433594 16.582031 C 39.089844 16.347656 36.167969 16.054688 33.789062 16.871094 C 29.136719 18.476562 30.410156 24.945312 31.09375 28.421875 C 31.160156 28.75 31.21875 29.050781 31.265625 29.308594 Z M 31.265625 29.308594 " fill-opacity="1" fill-rule="nonzero"/></g><path fill="rgb(26.669312%, 18.818665%, 12.159729%)" d="M 89.105469 68.710938 C 89.773438 69.332031 90.566406 69.640625 91.484375 69.636719 C 91.664062 69.636719 91.839844 69.625 92.015625 69.601562 C 106.097656 67.546875 122.867188 59.0625 127.6875 41.398438 L 127.753906 41.152344 C 128.8125 37.269531 129.8125 32.90625 128.175781 30.210938 C 127.574219 29.222656 126.617188 28.535156 125.308594 28.152344 C 124.917969 27.929688 124.496094 27.847656 124.046875 27.90625 C 121.882812 27.628906 119.382812 28.042969 117.84375 28.296875 L 117.433594 28.363281 C 109.847656 29.589844 102.472656 34.035156 97.226562 40.558594 C 94.496094 43.988281 92.316406 47.738281 90.683594 51.800781 C 88.910156 56.136719 87.054688 61.171875 87.472656 66.042969 C 87.515625 66.59375 87.679688 67.101562 87.96875 67.570312 C 88.253906 68.042969 88.632812 68.421875 89.105469 68.710938 Z M 89.105469 68.710938 " fill-opacity="1" fill-rule="nonzero"/><path fill="rgb(100%, 79.219055%, 43.139648%)" d="M 42.074219 91.542969 C 37.738281 93.5 35.308594 98.230469 34.332031 102.882812 C 33.636719 106.21875 33.53125 109.753906 34.621094 112.980469 C 35.707031 116.207031 38.117188 119.09375 41.335938 120.230469 C 46.617188 122.097656 53.285156 119.222656 57.671875 122.707031 C 60.28125 124.777344 61.011719 128.339844 62.386719 131.363281 C 63.761719 134.390625 66.945312 137.351562 70.054688 136.164062 C 71.515625 135.605469 72.503906 134.273438 73.570312 133.136719 C 73.980469 132.699219 74.410156 132.28125 74.863281 131.886719 C 75.316406 131.492188 75.789062 131.121094 76.28125 130.777344 C 76.769531 130.429688 77.277344 130.109375 77.800781 129.8125 C 78.324219 129.519531 78.859375 129.25 79.410156 129.011719 C 79.960938 128.769531 80.523438 128.558594 81.09375 128.375 C 81.667969 128.191406 82.246094 128.039062 82.835938 127.914062 C 83.421875 127.789062 84.015625 127.695312 84.613281 127.632812 C 85.210938 127.566406 85.808594 127.535156 86.410156 127.53125 C 87.011719 127.527344 87.609375 127.554688 88.210938 127.613281 C 88.808594 127.667969 89.402344 127.757812 89.988281 127.875 C 90.578125 127.992188 91.160156 128.140625 91.734375 128.320312 C 92.308594 128.496094 92.871094 128.703125 93.425781 128.9375 C 93.980469 129.171875 94.519531 129.433594 95.042969 129.722656 C 95.570312 130.011719 96.082031 130.328125 96.574219 130.667969 C 97.070312 131.007812 97.546875 131.375 98.003906 131.765625 C 98.460938 132.152344 98.894531 132.566406 99.308594 133 C 99.777344 133.496094 100.300781 134.046875 100.984375 134.050781 C 101.335938 134.023438 101.667969 133.921875 101.976562 133.746094 C 109.746094 129.992188 116.753906 124.425781 121.488281 117.214844 C 126.21875 110.003906 128.550781 101.097656 127.148438 92.589844 C 126.875 90.90625 126.40625 89.175781 125.25 87.925781 C 124.371094 86.984375 123.175781 86.414062 122.011719 85.863281 C 108.988281 79.738281 95.160156 73.457031 80.820312 74.816406 C 76.445312 75.230469 72.164062 76.355469 67.953125 77.609375 C 58.6875 80.363281 49.3125 83.957031 42.351562 90.660156 " fill-opacity="1" fill-rule="nonzero"/><path fill="rgb(100%, 79.219055%, 43.139648%)" d="M 41.972656 91.371094 C 35.402344 94.632812 32.777344 103.453125 33.785156 110.308594 C 34.28125 113.753906 35.941406 117.0625 38.824219 119.125 C 41.855469 121.292969 45.492188 121.15625 49.050781 121.078125 C 51.285156 121.027344 53.5625 120.976562 55.667969 121.820312 C 58.648438 123.011719 59.921875 125.730469 61.035156 128.527344 C 62.195312 131.4375 63.414062 134.679688 66.476562 136.101562 C 69.84375 137.667969 71.832031 135.167969 74.015625 132.96875 C 74.699219 132.269531 75.4375 131.632812 76.230469 131.058594 C 77.023438 130.480469 77.855469 129.976562 78.734375 129.542969 C 79.613281 129.105469 80.519531 128.746094 81.457031 128.464844 C 82.398438 128.183594 83.351562 127.980469 84.324219 127.859375 C 85.296875 127.738281 86.273438 127.699219 87.25 127.742188 C 88.230469 127.785156 89.199219 127.910156 90.15625 128.113281 C 91.113281 128.320312 92.046875 128.605469 92.957031 128.964844 C 93.867188 129.328125 94.742188 129.765625 95.578125 130.273438 C 96.773438 131.003906 97.867188 131.855469 98.867188 132.832031 C 99.289062 133.234375 99.738281 133.84375 100.296875 134.070312 C 101.355469 134.492188 102.28125 133.820312 103.207031 133.351562 C 105.199219 132.335938 107.121094 131.203125 108.96875 129.949219 C 115.917969 125.246094 121.78125 118.804688 125.011719 111 C 126.648438 107.089844 127.558594 103.015625 127.738281 98.78125 C 127.863281 95.472656 127.867188 90.839844 125.664062 88.109375 C 124.535156 86.710938 122.839844 86.027344 121.25 85.277344 C 118.914062 84.179688 116.574219 83.09375 114.214844 82.058594 C 109.773438 80.101562 105.253906 78.289062 100.59375 76.917969 C 95.574219 75.433594 90.371094 74.464844 85.125 74.441406 C 79.574219 74.40625 74.207031 75.59375 68.894531 77.136719 C 59.261719 79.933594 49.621094 83.554688 42.203125 90.53125 C 42.019531 90.707031 42.300781 90.988281 42.484375 90.8125 C 48.730469 84.9375 56.574219 81.457031 64.648438 78.851562 C 73.34375 76.027344 82.054688 74.03125 91.234375 75.269531 C 100.132812 76.476562 108.558594 79.894531 116.675781 83.589844 C 118.546875 84.441406 120.429688 85.292969 122.277344 86.195312 C 124.898438 87.476562 126.359375 89.324219 126.898438 92.214844 C 127.730469 96.671875 127.449219 101.378906 126.339844 105.761719 C 124.324219 113.75 119.589844 120.734375 113.382812 126.089844 C 110.3125 128.71875 106.980469 130.964844 103.386719 132.820312 C 102.015625 133.53125 100.972656 133.730469 99.457031 132.855469 C 98.796875 132.46875 98.164062 131.613281 97.554688 131.140625 C 96.191406 130.085938 94.710938 129.246094 93.113281 128.609375 C 91.640625 128.035156 90.121094 127.65625 88.550781 127.480469 C 86.980469 127.300781 85.414062 127.328125 83.851562 127.5625 C 82.289062 127.792969 80.785156 128.226562 79.335938 128.851562 C 77.886719 129.480469 76.542969 130.285156 75.304688 131.265625 C 73.832031 132.441406 72.765625 134.085938 71.246094 135.175781 C 68.09375 137.445312 64.847656 135.15625 63.125 132.289062 C 61.464844 129.53125 61.035156 126.132812 58.90625 123.621094 C 56.902344 121.265625 53.960938 120.6875 51.003906 120.648438 C 46.320312 120.582031 41.597656 121.316406 37.867188 117.796875 C 30.800781 111.140625 33.648438 95.933594 42.171875 91.699219 C 42.402344 91.585938 42.199219 91.246094 41.972656 91.359375 Z M 41.972656 91.371094 " fill-opacity="1" fill-rule="nonzero"/><path fill="rgb(100%, 79.219055%, 43.139648%)" d="M 123.832031 88.011719 C 129.828125 89.601562 134.378906 94.363281 138.488281 99.003906 C 144.570312 105.863281 150.609375 113.253906 152.792969 122.152344 C 153.652344 125.652344 155.863281 135.582031 156.085938 139.175781 C 156.734375 149.5 155.378906 153.722656 152.761719 163.730469 C 150.570312 172.097656 146.207031 179.722656 141.570312 187.015625 C 140.289062 189.035156 138.957031 191.0625 137.175781 192.660156 C 134.367188 195.167969 130.371094 196.4375 126.699219 195.582031 C 123.03125 194.730469 119.886719 191.59375 119.425781 187.863281 C 118.953125 184.027344 121.039062 179.660156 118.777344 176.523438 C 117.824219 175.207031 116.28125 174.453125 114.765625 173.863281 C 112.359375 172.929688 109.878906 172.277344 107.324219 171.914062 C 105.238281 171.617188 103.03125 171.480469 101.269531 170.332031 C 97.753906 168.046875 97.632812 162.847656 99.109375 158.9375 C 100.585938 155.03125 103.226562 151.527344 104.046875 147.421875 C 104.753906 143.894531 104.03125 140.195312 102.589844 136.898438 C 100.988281 133.246094 98.457031 129.664062 98.867188 125.699219 " fill-opacity="1" fill-rule="nonzero"/><path fill="rgb(100%, 79.219055%, 43.139648%)" d="M 123.78125 88.199219 C 131.242188 90.378906 136.4375 96.792969 141.269531 102.507812 C 146.300781 108.453125 150.808594 114.925781 152.683594 122.589844 C 153.957031 127.746094 155.25 133.058594 155.804688 138.34375 C 156.488281 144.875 155.714844 151.308594 154.128906 157.644531 C 152.175781 165.457031 149.683594 172.726562 145.710938 179.769531 C 142.070312 186.226562 137.710938 195.652344 129.085938 195.660156 C 124.84375 195.660156 120.679688 192.8125 119.742188 188.554688 C 118.96875 185.042969 120.882812 181.347656 119.6875 177.90625 C 117.621094 171.886719 108.355469 172.492188 103.464844 171.078125 C 98.371094 169.59375 97.691406 164.070312 99.074219 159.65625 C 100.316406 155.707031 102.992188 152.363281 104.035156 148.34375 C 104.964844 144.785156 104.445312 141.066406 103.128906 137.675781 C 101.578125 133.691406 98.835938 130.167969 99.070312 125.699219 C 99.085938 125.449219 98.6875 125.449219 98.675781 125.699219 C 98.484375 129.300781 100.164062 132.28125 101.691406 135.433594 C 103.921875 140.0625 104.941406 144.976562 103.109375 149.933594 C 101.015625 155.59375 95.15625 162.636719 99.429688 168.804688 C 101.082031 171.191406 103.824219 171.632812 106.511719 172.023438 C 111.109375 172.675781 118.996094 173.859375 119.578125 179.53125 C 119.941406 183.085938 118.371094 186.660156 119.828125 190.113281 C 120.402344 191.421875 121.21875 192.554688 122.28125 193.507812 C 123.347656 194.464844 124.558594 195.160156 125.921875 195.597656 C 132.957031 197.824219 138.304688 192.527344 141.742188 187.136719 C 146.222656 180.109375 150.425781 172.753906 152.707031 164.691406 C 154.65625 157.847656 156.457031 150.914062 156.445312 143.757812 C 156.445312 137.472656 155.109375 131.398438 153.730469 125.292969 C 151.925781 117.316406 148.398438 110.679688 143.261719 104.3125 C 138.066406 97.871094 132.175781 90.25 123.886719 87.832031 C 123.765625 87.808594 123.6875 87.855469 123.65625 87.972656 C 123.621094 88.09375 123.664062 88.171875 123.78125 88.214844 Z M 123.78125 88.199219 " fill-opacity="1" fill-rule="nonzero"/><path fill="rgb(100%, 59.609985%, 26.269531%)" d="M 35.3125 114.398438 C 32.664062 118.839844 30.585938 123.535156 29.082031 128.484375 C 27.574219 133.429688 26.6875 138.488281 26.414062 143.652344 C 26.328125 145.402344 26.414062 147.394531 27.726562 148.554688 C 28.96875 149.644531 30.8125 149.566406 32.441406 149.390625 C 43.136719 148.265625 53.492188 145.753906 63.511719 141.851562 C 64.636719 141.414062 65.878906 140.835938 66.273438 139.691406 C 67.015625 137.519531 64.289062 135.941406 62.839844 134.144531 C 60.253906 130.925781 61.601562 125.421875 58.414062 122.792969 C 55.660156 120.53125 51.605469 121.996094 48.046875 122.238281 C 46.855469 122.304688 45.675781 122.222656 44.503906 121.996094 C 43.335938 121.769531 42.210938 121.398438 41.132812 120.890625 C 40.054688 120.378906 39.058594 119.746094 38.140625 118.988281 C 37.21875 118.226562 36.410156 117.367188 35.707031 116.402344 " fill-opacity="1" fill-rule="nonzero"/><path fill="rgb(100%, 62.748718%, 44.309998%)" d="M 34.96875 114.195312 C 32.601562 118.203125 30.683594 122.410156 29.222656 126.828125 C 27.757812 131.242188 26.777344 135.761719 26.285156 140.386719 C 25.988281 143.238281 25.121094 147.902344 28.414062 149.433594 C 31.433594 150.835938 36.148438 149.386719 39.300781 148.871094 C 44.417969 148.035156 49.464844 146.875 54.4375 145.390625 C 56.761719 144.695312 59.070312 143.929688 61.351562 143.09375 C 62.839844 142.550781 64.871094 142.0625 65.988281 140.847656 C 68.152344 138.5 65.402344 136.3125 63.851562 134.65625 C 61.140625 131.769531 61.867188 127.9375 60.257812 124.582031 C 58.648438 121.230469 55.21875 120.9375 51.871094 121.359375 C 49.125 121.699219 46.59375 122.148438 43.847656 121.449219 C 42.289062 121.042969 40.839844 120.394531 39.5 119.496094 C 38.164062 118.597656 37.015625 117.503906 36.050781 116.214844 C 35.746094 115.8125 35.058594 116.214844 35.363281 116.613281 C 38.953125 121.332031 44.3125 123.199219 50.105469 122.402344 C 54.488281 121.800781 58.816406 121.527344 60.144531 126.71875 C 60.78125 129.195312 60.804688 131.917969 62.320312 134.085938 C 63.019531 135.089844 64.230469 135.773438 64.859375 136.792969 C 65.097656 137.179688 65.042969 140.445312 64.667969 140.890625 C 64.367188 141.242188 63.394531 141.472656 62.960938 141.648438 C 61.914062 142.074219 60.839844 142.449219 59.769531 142.824219 C 55.796875 144.226562 51.757812 145.417969 47.660156 146.394531 C 43.4375 147.398438 39.171875 148.171875 34.863281 148.71875 C 33.128906 148.9375 31.09375 149.417969 29.40625 148.847656 C 26.359375 147.828125 26.738281 144.390625 26.949219 141.785156 C 27.359375 136.984375 28.296875 132.292969 29.765625 127.703125 C 31.234375 123.113281 33.195312 118.746094 35.652344 114.597656 C 35.707031 114.503906 35.722656 114.402344 35.695312 114.296875 C 35.664062 114.191406 35.605469 114.109375 35.511719 114.054688 C 35.414062 114 35.316406 113.984375 35.210938 114.015625 C 35.101562 114.042969 35.023438 114.101562 34.964844 114.195312 Z M 34.96875 114.195312 " fill-opacity="1" fill-rule="nonzero"/><path fill="rgb(100%, 59.609985%, 26.269531%)" d="M 65.476562 150.484375 C 66.394531 152.6875 67.589844 154.730469 69.050781 156.613281 C 70.511719 158.5 72.195312 160.164062 74.097656 161.605469 C 75.070312 162.351562 76.125 163.042969 76.722656 164.101562 C 77.503906 165.492188 77.347656 167.203125 77.117188 168.78125 C 75.941406 176.921875 73.585938 184.839844 71.238281 192.71875 C 70.644531 194.714844 69.976562 196.828125 68.390625 198.167969 C 66.699219 199.605469 64.25 199.875 62.089844 199.382812 C 59.925781 198.886719 57.988281 197.722656 56.117188 196.53125 C 45.492188 189.785156 35.355469 181.003906 31.183594 169.132812 C 30.027344 165.835938 29.511719 161.78125 31.859375 159.1875 C 33.394531 157.488281 35.773438 156.886719 38.007812 156.371094 C 46.773438 154.363281 55.566406 152.496094 64.382812 150.773438 " fill-opacity="1" fill-rule="nonzero"/><path fill="rgb(100%, 62.748718%, 44.309998%)" d="M 65.128906 150.683594 C 66.699219 154.359375 68.949219 157.558594 71.878906 160.28125 C 73.277344 161.558594 75.4375 162.617188 76.371094 164.300781 C 77.785156 166.851562 76.414062 170.894531 75.890625 173.535156 C 74.929688 178.375 73.628906 183.140625 72.25 187.878906 C 70.902344 192.503906 70.015625 199.195312 63.925781 199.210938 C 59.363281 199.210938 54.722656 195.285156 51.175781 192.726562 C 47.59375 190.183594 44.277344 187.332031 41.21875 184.175781 C 38.300781 181.167969 35.835938 177.824219 33.832031 174.144531 C 31.84375 170.425781 29.15625 164.730469 31.367188 160.582031 C 32.789062 157.914062 35.925781 157.257812 38.625 156.640625 C 41.484375 155.980469 44.351562 155.339844 47.226562 154.71875 C 52.96875 153.46875 58.726562 152.28125 64.492188 151.160156 C 64.988281 151.058594 64.78125 150.296875 64.28125 150.394531 C 57.828125 151.652344 51.398438 152.988281 44.988281 154.398438 C 40.832031 155.3125 34.265625 155.597656 31.339844 159.195312 C 28.859375 162.253906 29.820312 166.65625 31.078125 170.011719 C 32.675781 174.265625 35.074219 178.167969 37.945312 181.679688 C 41.011719 185.429688 44.609375 188.71875 48.441406 191.675781 C 52.351562 194.691406 57.058594 198.679688 61.972656 199.769531 C 65.566406 200.566406 68.90625 199.257812 70.519531 195.890625 C 71.546875 193.742188 72.070312 191.3125 72.734375 189.039062 C 73.660156 185.878906 74.558594 182.714844 75.355469 179.519531 C 76.152344 176.324219 76.84375 173.113281 77.34375 169.859375 C 77.6875 167.628906 78.097656 165.226562 76.640625 163.296875 C 75.230469 161.429688 72.875 160.242188 71.234375 158.542969 C 68.925781 156.113281 67.117188 153.359375 65.804688 150.277344 C 65.601562 149.808594 64.917969 150.210938 65.117188 150.675781 Z M 65.128906 150.683594 " fill-opacity="1" fill-rule="nonzero"/><path fill="rgb(100%, 59.609985%, 26.269531%)" d="M 97.777344 162.105469 C 95.050781 164.757812 90.289062 163.703125 87.167969 165.878906 C 84.886719 167.472656 84.03125 170.386719 83.328125 173.0625 C 81.15625 181.347656 78.984375 189.632812 76.816406 197.910156 C 76.566406 198.886719 76.304688 199.914062 76.566406 200.882812 C 77.121094 202.890625 79.546875 203.671875 81.609375 203.929688 C 86.519531 204.539062 91.503906 204.027344 96.390625 203.269531 C 98.707031 202.953125 100.980469 202.457031 103.21875 201.785156 C 105.140625 201.125 107.015625 200.359375 108.847656 199.480469 L 118.460938 195.101562 C 119.011719 194.855469 119.597656 194.570312 119.894531 194.046875 C 120.566406 192.855469 119.398438 191.53125 118.71875 190.34375 C 117.09375 187.488281 118.40625 183.960938 119.226562 180.777344 C 119.492188 179.738281 119.699219 178.597656 119.242188 177.625 C 118.886719 176.851562 118.167969 176.3125 117.425781 175.890625 C 113.804688 173.816406 109.375 173.925781 105.34375 172.84375 C 101.316406 171.761719 97.132812 168.421875 97.8125 164.3125 " fill-opacity="1" fill-rule="nonzero"/><path fill="rgb(100%, 62.748718%, 44.309998%)" d="M 97.5 161.824219 C 94.214844 164.625 89.167969 163.210938 86.035156 166.328125 C 82.949219 169.410156 82.425781 174.933594 81.382812 178.925781 L 76.953125 195.816406 C 76.097656 199.082031 75.238281 202.257812 79.066406 203.742188 C 83.671875 205.527344 89.695312 204.617188 94.433594 203.972656 C 99.511719 203.328125 104.386719 201.949219 109.050781 199.839844 C 111.777344 198.609375 114.5 197.371094 117.222656 196.125 C 118.445312 195.570312 120.261719 195.089844 120.480469 193.519531 C 120.714844 191.851562 118.894531 190.296875 118.519531 188.785156 C 117.777344 185.8125 119.363281 182.988281 119.792969 180.113281 C 120.433594 175.828125 115.972656 174.507812 112.527344 173.804688 C 107.285156 172.726562 97.457031 171.988281 98.207031 164.328125 C 98.253906 163.832031 97.464844 163.832031 97.414062 164.328125 C 96.667969 171.941406 105.980469 173.40625 111.4375 174.402344 C 113.421875 174.765625 116.863281 175.265625 118.199219 176.933594 C 120.046875 179.234375 118.160156 182.644531 117.746094 185.191406 C 117.515625 186.585938 117.445312 188.007812 117.875 189.371094 C 118.078125 190.019531 118.503906 190.554688 118.746094 191.171875 C 119.617188 193.402344 119.144531 194.375 117.304688 195.222656 C 112.519531 197.421875 107.683594 200.042969 102.636719 201.570312 C 97.824219 203.023438 92.539062 203.65625 87.527344 203.800781 C 85.214844 203.871094 82.566406 203.929688 80.308594 203.304688 C 78.445312 202.789062 77.082031 201.730469 76.984375 199.773438 C 76.914062 198.339844 77.480469 196.910156 77.851562 195.535156 L 81.625 181.128906 C 82.320312 178.480469 83 175.828125 83.710938 173.183594 C 84.332031 170.855469 85.003906 168.300781 86.859375 166.628906 C 89.964844 163.84375 94.84375 165.144531 98.058594 162.390625 C 98.449219 162.058594 97.886719 161.5 97.5 161.828125 Z M 97.5 161.824219 " fill-opacity="1" fill-rule="nonzero"/><path fill="rgb(0%, 77.249146%, 37.649536%)" d="M 35.15625 19.507812 C 33.796875 23.808594 34.621094 28.507812 36.0625 32.78125 C 41.898438 50.105469 58.480469 63.292969 76.703125 65.105469 C 77.210938 65.195312 77.707031 65.160156 78.191406 65 C 79.390625 64.503906 79.472656 62.847656 79.285156 61.5625 C 78.375 55.371094 75.691406 49.589844 73.035156 43.910156 C 71.796875 41.285156 70.566406 38.644531 68.875 36.289062 C 67.226562 33.996094 65.171875 32.019531 62.964844 30.253906 C 59.164062 27.226562 54.996094 24.847656 50.460938 23.109375 C 45.921875 21.371094 41.230469 20.355469 36.378906 20.066406 " fill-opacity="1" fill-rule="nonzero"/><path fill="rgb(0%, 77.249146%, 37.649536%)" d="M 34.949219 19.453125 C 32.46875 28.417969 37.308594 38.507812 42.585938 45.597656 C 45.183594 49.089844 48.1875 52.1875 51.59375 54.902344 C 55 57.613281 58.695312 59.84375 62.683594 61.597656 C 66.671875 63.355469 70.820312 64.53125 75.136719 65.128906 C 78.21875 65.542969 79.851562 64.957031 79.472656 61.519531 C 78.886719 56.257812 76.578125 51.152344 74.390625 46.382812 C 72.191406 41.578125 70.042969 36.746094 66.261719 32.945312 C 58.421875 25.050781 47.382812 20.605469 36.378906 19.871094 C 36.128906 19.855469 36.128906 20.25 36.378906 20.265625 C 40.910156 20.550781 45.308594 21.46875 49.578125 23.015625 C 53.847656 24.5625 57.808594 26.675781 61.472656 29.355469 C 69.367188 35.199219 73.433594 44.035156 76.785156 53.035156 C 77.558594 55.082031 78.1875 57.175781 78.667969 59.3125 C 78.871094 60.269531 79.628906 62.582031 79.0625 63.523438 C 78.566406 64.363281 76.789062 64.804688 75.949219 64.828125 C 75.234375 64.847656 74.445312 64.628906 73.738281 64.511719 C 69.859375 63.84375 66.128906 62.710938 62.542969 61.101562 C 59.117188 59.570312 55.90625 57.679688 52.910156 55.421875 C 49.910156 53.167969 47.203125 50.605469 44.785156 47.742188 C 38.628906 40.449219 32.625 29.300781 35.332031 19.554688 C 35.367188 19.425781 35.320312 19.34375 35.195312 19.308594 C 35.066406 19.273438 34.984375 19.320312 34.949219 19.449219 Z M 34.949219 19.453125 " fill-opacity="1" fill-rule="nonzero"/><path fill="rgb(0%, 77.249146%, 37.649536%)" d="M 91.867188 64.140625 C 91.878906 55.625 96.710938 47.886719 102.105469 41.292969 C 104.609375 38.226562 107.367188 35.21875 110.917969 33.464844 C 114.597656 31.644531 118.828125 31.320312 122.929688 31.347656 C 123.480469 31.347656 124.09375 31.386719 124.460938 31.792969 C 124.707031 32.132812 124.828125 32.511719 124.828125 32.929688 C 125.550781 41.199219 120.984375 49.261719 114.636719 54.621094 C 108.285156 59.976562 100.328125 63.042969 92.402344 65.546875 " fill-opacity="1" fill-rule="nonzero"/><path fill="rgb(0%, 77.249146%, 37.649536%)" d="M 92.066406 64.140625 C 92.246094 55.46875 96.910156 47.953125 102.242188 41.429688 C 104.722656 38.402344 107.453125 35.390625 111.015625 33.636719 C 113.746094 32.289062 123.683594 29.199219 124.679688 33.761719 C 125.472656 37.394531 123.5 42.386719 121.828125 45.511719 C 119.949219 48.964844 117.503906 51.953125 114.492188 54.480469 C 108.140625 59.859375 100.1875 62.851562 92.347656 65.351562 C 92.101562 65.433594 92.214844 65.8125 92.457031 65.738281 C 105.695312 61.507812 120.730469 54.710938 124.4375 39.902344 C 124.933594 37.921875 125.992188 33.792969 124.769531 31.953125 C 123.582031 30.164062 119.371094 31.183594 117.636719 31.386719 C 110.300781 32.265625 105.5625 36.589844 101.132812 42.171875 C 96.089844 48.535156 91.84375 55.816406 91.667969 64.140625 C 91.667969 64.269531 91.734375 64.335938 91.867188 64.335938 C 92 64.335938 92.066406 64.269531 92.066406 64.140625 Z M 92.066406 64.140625 " fill-opacity="1" fill-rule="nonzero"/><path fill="rgb(97.648621%, 70.588684%, 31.369019%)" d="M 129.835938 89.769531 C 140.140625 101.820312 143.699219 118.320312 143.960938 134.160156 C 144.113281 143.339844 143.246094 152.6875 139.808594 161.203125 C 136.011719 170.601562 129.296875 178.503906 122.320312 185.863281 C 121.644531 186.574219 120.949219 187.308594 120.644531 188.238281 C 120.132812 189.789062 120.867188 191.546875 122.070312 192.648438 C 123.277344 193.75 124.875 194.324219 126.449219 194.757812 C 130.09375 195.765625 134.253906 196.128906 137.425781 194.074219 C 139.660156 192.621094 141.046875 190.199219 142.332031 187.867188 C 146.300781 180.65625 150.199219 173.347656 152.707031 165.511719 C 160.324219 141.695312 153.570312 113.945312 136.03125 96.101562 " fill-opacity="1" fill-rule="nonzero"/><path fill="rgb(97.648621%, 70.588684%, 31.369019%)" d="M 129.699219 89.898438 C 140.835938 103.164062 144.058594 121.078125 143.765625 137.953125 C 143.601562 147.328125 142.085938 156.722656 137.78125 165.144531 C 133.738281 173.039062 127.804688 179.449219 121.929688 185.984375 C 116.929688 191.535156 124.886719 195 129.621094 195.601562 C 132.597656 195.984375 135.738281 195.664062 138.179688 193.769531 C 140.867188 191.683594 142.355469 188.265625 143.933594 185.347656 C 148.089844 177.699219 152.011719 169.820312 154.09375 161.320312 C 155.835938 154.15625 156.394531 146.898438 155.777344 139.550781 C 154.441406 123.292969 147.5625 107.667969 136.175781 95.9375 C 135.996094 95.753906 135.714844 96.035156 135.894531 96.21875 C 145.910156 106.535156 152.445312 119.894531 154.714844 134.066406 C 157.242188 149.847656 153.929688 164.855469 146.808594 179.015625 C 144.976562 182.660156 143.117188 186.375 140.960938 189.839844 C 138.167969 194.328125 134.046875 195.953125 128.90625 195.085938 C 126.847656 194.738281 124.554688 194.195312 122.855469 192.941406 C 121.390625 191.863281 120.742188 190.746094 120.960938 188.929688 C 121.160156 187.277344 121.988281 186.492188 123.078125 185.328125 C 125.742188 182.488281 128.347656 179.597656 130.773438 176.546875 C 135.277344 170.847656 139.085938 164.609375 141.289062 157.664062 C 143.695312 150.085938 144.304688 142.042969 144.171875 134.132812 C 143.921875 118.332031 140.371094 101.96875 129.992188 89.601562 C 129.828125 89.40625 129.546875 89.6875 129.710938 89.882812 Z M 129.699219 89.898438 " fill-opacity="1" fill-rule="nonzero"/><path fill="rgb(91.758728%, 50.979614%, 20.388794%)" d="M 93.71875 165.148438 C 94.25 167.605469 95.132812 169.929688 96.375 172.117188 C 97.613281 174.308594 99.152344 176.261719 100.988281 177.984375 C 102.636719 179.523438 104.5 180.835938 106.070312 182.441406 C 109.832031 186.328125 111.640625 191.636719 113.417969 196.742188 C 113.503906 197.097656 113.683594 197.398438 113.964844 197.632812 C 114.371094 197.90625 114.90625 197.78125 115.375 197.632812 L 118.675781 196.6875 C 119.519531 196.4375 120.445312 196.136719 120.890625 195.382812 C 121.648438 194.101562 120.582031 192.578125 119.964844 191.222656 C 118.796875 188.664062 119.28125 185.707031 119.328125 182.890625 C 119.371094 180.078125 118.667969 176.839844 116.171875 175.539062 C 115.03125 174.941406 113.691406 174.863281 112.429688 174.671875 C 110.078125 174.320312 107.8125 173.539062 105.5625 172.769531 C 102.710938 171.777344 99.589844 170.582031 98.226562 167.898438 C 97.601562 166.675781 97.417969 165.253906 96.691406 164.089844 C 95.960938 162.929688 94.300781 162.125 93.214844 162.964844 " fill-opacity="1" fill-rule="nonzero"/><path fill="rgb(91.758728%, 50.979614%, 20.388794%)" d="M 93.519531 165.199219 C 94.289062 168.644531 95.710938 171.800781 97.78125 174.660156 C 100.074219 177.792969 103.261719 179.835938 105.921875 182.585938 C 108.988281 185.761719 110.738281 189.878906 112.222656 193.964844 C 112.96875 196.015625 112.945312 198.195312 115.425781 197.839844 C 117.09375 197.59375 120.925781 196.910156 121.316406 194.765625 C 121.511719 193.722656 120.875 192.734375 120.464844 191.824219 C 119.390625 189.429688 119.355469 187.167969 119.460938 184.609375 C 119.566406 181.96875 119.628906 178.925781 117.875 176.734375 C 115.964844 174.347656 112.570312 174.652344 109.863281 173.941406 C 104.882812 172.632812 99.609375 171.15625 97.6875 165.945312 C 96.941406 163.960938 95.519531 161.625 93.117188 162.816406 C 92.886719 162.929688 93.089844 163.269531 93.316406 163.15625 C 96.738281 161.46875 97.222656 166.847656 98.429688 168.660156 C 99.09375 169.605469 99.921875 170.375 100.914062 170.964844 C 103.738281 172.746094 107.402344 173.808594 110.621094 174.546875 C 112.359375 174.949219 114.453125 174.871094 116.066406 175.730469 C 118.394531 176.96875 119.023438 179.796875 119.121094 182.203125 C 119.242188 185.332031 118.570312 188.351562 119.789062 191.34375 C 120.488281 193.078125 122.070312 194.566406 119.253906 196.316406 C 118.535156 196.761719 117.371094 196.875 116.554688 197.109375 C 113.578125 197.96875 113.261719 195.648438 112.460938 193.464844 C 111.28125 190.242188 109.929688 187.054688 107.878906 184.296875 C 105.660156 181.308594 102.464844 179.363281 99.9375 176.667969 C 98.4375 175.039062 97.175781 173.242188 96.152344 171.28125 C 95.128906 169.320312 94.375 167.257812 93.894531 165.097656 C 93.839844 164.851562 93.457031 164.957031 93.511719 165.207031 Z M 93.519531 165.199219 " fill-opacity="1" fill-rule="nonzero"/><path fill="rgb(91.758728%, 50.979614%, 20.388794%)" d="M 32.605469 117.007812 C 33.144531 122.476562 37.886719 127.238281 43.34375 127.820312 C 45.046875 128 46.785156 127.820312 48.46875 128.140625 C 54.097656 129.214844 57.117188 135.1875 61.464844 138.914062 C 62.304688 139.628906 63.261719 140.296875 64.363281 140.398438 C 65.460938 140.5 66.695312 139.859375 66.902344 138.777344 C 67.191406 137.25 65.511719 136.1875 64.421875 135.0625 C 61.546875 132.089844 62.355469 126.816406 59.472656 123.835938 C 57.042969 121.328125 53.046875 121.460938 49.566406 121.777344 C 46.082031 122.09375 42.089844 122.234375 39.640625 119.734375 C 37.953125 118 37.070312 115.109375 34.675781 114.730469 " fill-opacity="1" fill-rule="nonzero"/><path fill="rgb(91.758728%, 50.979614%, 20.388794%)" d="M 32.410156 117.007812 C 33.152344 122.617188 37.597656 127.351562 43.328125 128.015625 C 45.378906 128.265625 47.4375 127.988281 49.449219 128.59375 C 51.457031 129.203125 53.09375 130.492188 54.554688 131.90625 C 57.003906 134.28125 58.960938 137.203125 61.660156 139.3125 C 63.015625 140.371094 65.601562 141.472656 66.8125 139.515625 C 68.027344 137.554688 65.667969 136.128906 64.578125 134.929688 C 62.175781 132.269531 62.421875 128.457031 60.832031 125.398438 C 59.632812 123.109375 57.464844 121.933594 54.957031 121.558594 C 50.929688 120.964844 46.816406 122.457031 42.832031 121.328125 C 38.972656 120.238281 38.4375 115.523438 34.769531 114.546875 C 34.660156 114.539062 34.59375 114.585938 34.5625 114.6875 C 34.535156 114.789062 34.566406 114.867188 34.660156 114.917969 C 37.925781 115.785156 38.707031 120.175781 41.984375 121.453125 C 44.636719 122.488281 47.574219 122.101562 50.332031 121.90625 C 55.160156 121.558594 59.550781 122.339844 61.21875 127.457031 C 62.050781 130.011719 62.273438 132.808594 64.070312 134.9375 C 64.539062 135.496094 65.496094 136.015625 65.808594 136.648438 C 64.835938 139.703125 63.652344 140.566406 62.261719 139.234375 C 61.832031 138.960938 61.433594 138.644531 61.070312 138.285156 C 59.789062 137.160156 58.679688 135.824219 57.554688 134.554688 C 55.601562 132.347656 53.585938 130.011719 50.871094 128.726562 C 47.78125 127.261719 44.394531 128.167969 41.207031 127.15625 C 36.683594 125.71875 33.421875 121.648438 32.800781 117 C 32.765625 116.753906 32.367188 116.753906 32.402344 117 Z M 32.410156 117.007812 " fill-opacity="1" fill-rule="nonzero"/><path fill="rgb(9.408569%, 61.959839%, 32.939148%)" d="M 35.71875 20.71875 C 43.691406 35.386719 56.824219 46.449219 69.648438 57.148438 L 80.070312 65.839844 C 72.210938 62.601562 63.15625 62.433594 55.898438 58.015625 C 53.945312 56.828125 52.179688 55.363281 50.441406 53.871094 C 46.347656 50.351562 42.351562 46.613281 39.410156 42.09375 C 37.328125 38.878906 35.839844 35.410156 34.945312 31.691406 C 34.046875 27.972656 33.792969 24.207031 34.183594 20.398438 " fill-opacity="1" fill-rule="nonzero"/><path fill="rgb(0%, 77.249146%, 37.649536%)" d="M 35.546875 20.820312 C 43.5625 35.332031 56.257812 46.226562 68.824219 56.707031 C 70.65625 58.238281 72.484375 59.765625 74.316406 61.292969 L 76.71875 63.296875 C 76.96875 63.507812 79.253906 65.070312 79.300781 65.316406 C 79.1875 64.707031 74.117188 63.6875 73.402344 63.507812 C 71.402344 63.011719 69.382812 62.558594 67.378906 62.066406 C 63.113281 61.023438 58.867188 59.746094 55.167969 57.3125 C 51.351562 54.804688 47.804688 51.484375 44.636719 48.210938 C 37.320312 40.664062 33.417969 30.945312 34.382812 20.398438 C 34.402344 20.152344 34.007812 20.152344 33.984375 20.398438 C 32.855469 32.734375 38.367188 43.128906 47.265625 51.320312 C 51.640625 55.347656 56.082031 58.96875 61.78125 60.90625 C 67.769531 62.941406 74.113281 63.6875 80.011719 66.027344 C 80.195312 66.101562 80.355469 65.820312 80.207031 65.695312 C 64.144531 52.300781 46.191406 39.269531 35.898438 20.617188 C 35.777344 20.394531 35.433594 20.59375 35.554688 20.820312 Z M 35.546875 20.820312 " fill-opacity="1" fill-rule="nonzero"/><path fill="rgb(9.408569%, 61.959839%, 32.939148%)" d="M 91.582031 66.078125 C 94.996094 62.171875 99.273438 59.144531 103.15625 55.691406 C 111.484375 48.296875 117.925781 39.066406 124.285156 29.929688 C 126.007812 34.519531 126.632812 39.835938 124.472656 44.226562 C 123.835938 45.441406 123.097656 46.585938 122.253906 47.667969 C 118.746094 52.402344 114.839844 56.921875 110.046875 60.363281 C 105.253906 63.800781 99.492188 66.105469 93.59375 66.007812 " fill-opacity="1" fill-rule="nonzero"/><path fill="rgb(0%, 77.249146%, 37.649536%)" d="M 91.730469 66.21875 C 97.257812 60.058594 104.277344 55.46875 109.847656 49.277344 C 112.441406 46.390625 114.855469 43.347656 117.179688 40.238281 C 118.382812 38.625 119.570312 36.992188 120.730469 35.347656 C 121.226562 34.664062 123.542969 30.566406 124.390625 30.792969 C 125.34375 31.039062 125.648438 37.019531 125.65625 37.574219 C 125.726562 39.859375 125.277344 42.042969 124.308594 44.117188 C 122.480469 47.882812 119.34375 51.316406 116.5 54.351562 C 110.472656 60.792969 102.675781 65.765625 93.601562 65.804688 C 93.46875 65.804688 93.402344 65.871094 93.402344 66 C 93.402344 66.132812 93.46875 66.199219 93.601562 66.199219 C 103.261719 66.160156 111.4375 60.613281 117.671875 53.652344 C 120.429688 50.574219 123.71875 47.003906 125.167969 43.085938 C 126.757812 38.785156 125.976562 34.082031 124.488281 29.878906 C 124.460938 29.796875 124.40625 29.75 124.320312 29.738281 C 124.234375 29.726562 124.167969 29.757812 124.125 29.832031 C 119.363281 36.667969 114.585938 43.539062 108.945312 49.691406 C 103.542969 55.585938 96.785156 60.003906 91.449219 65.941406 C 91.28125 66.128906 91.558594 66.410156 91.730469 66.21875 Z M 91.730469 66.21875 " fill-opacity="1" fill-rule="nonzero"/><path fill="rgb(97.648621%, 70.588684%, 31.369019%)" d="M 62.320312 131.78125 C 66.042969 126.644531 71.613281 122.8125 77.820312 121.5 C 84.03125 120.1875 90.8125 121.488281 95.902344 125.273438 C 100.988281 129.058594 104.210938 135.332031 104.003906 141.664062 C 102.445312 135.222656 96.96875 129.914062 90.480469 128.535156 C 83.996094 127.160156 76.832031 129.800781 72.785156 135.050781 C 72.289062 135.691406 71.832031 136.378906 71.175781 136.855469 C 69.644531 137.976562 67.402344 137.625 65.851562 136.523438 C 64.304688 135.421875 63.304688 133.730469 62.378906 132.066406 " fill-opacity="1" fill-rule="nonzero"/><path fill="rgb(97.648621%, 70.588684%, 31.369019%)" d="M 62.492188 131.878906 C 67.355469 125.378906 74.898438 121.011719 83.171875 121.210938 C 91.050781 121.40625 98.554688 125.738281 101.933594 132.972656 C 102.773438 134.746094 103.335938 136.601562 103.617188 138.542969 C 103.644531 138.730469 103.867188 140.886719 103.90625 140.875 C 104.101562 140.828125 103.335938 139.019531 103.207031 138.730469 C 102.027344 136.101562 100.324219 133.875 98.09375 132.042969 C 97.050781 131.179688 95.917969 130.441406 94.703125 129.839844 C 93.488281 129.234375 92.21875 128.777344 90.898438 128.464844 C 89.574219 128.15625 88.234375 128 86.878906 128 C 85.519531 128 84.179688 128.152344 82.859375 128.460938 C 79.652344 129.207031 76.847656 130.699219 74.441406 132.9375 C 72.675781 134.597656 71.53125 137.148438 68.867188 137.230469 C 65.710938 137.316406 63.921875 134.398438 62.558594 131.96875 C 62.4375 131.742188 62.09375 131.945312 62.21875 132.167969 C 63.707031 134.816406 65.800781 137.992188 69.28125 137.726562 C 71.035156 137.59375 71.90625 136.460938 72.9375 135.195312 C 74.605469 133.085938 76.648438 131.433594 79.0625 130.242188 C 89.125 125.402344 100.945312 130.984375 103.8125 141.71875 C 103.84375 141.828125 103.917969 141.875 104.03125 141.863281 C 104.144531 141.847656 104.203125 141.78125 104.203125 141.667969 C 104.300781 131.847656 97.253906 123.496094 87.738281 121.371094 C 77.847656 119.164062 68.066406 123.773438 62.144531 131.683594 C 61.996094 131.886719 62.339844 132.085938 62.492188 131.882812 Z M 62.492188 131.878906 " fill-opacity="1" fill-rule="nonzero"/><path fill="rgb(100%, 100%, 100%)" d="M 90.492188 170.511719 C 89.742188 172.664062 89.261719 174.878906 89.042969 177.148438 C 88.933594 178.332031 89.007812 179.753906 90.023438 180.382812 C 90.925781 180.941406 92.207031 180.492188 92.816406 179.640625 C 93.425781 178.785156 93.492188 177.621094 93.3125 176.574219 C 93.15625 175.816406 92.941406 175.070312 92.667969 174.347656 C 92.171875 172.898438 91.628906 171.398438 90.558594 170.296875 L 90.285156 171.144531 " fill-opacity="1" fill-rule="nonzero"/><path fill="rgb(100%, 100%, 100%)" d="M 90.300781 170.460938 C 89.746094 172.136719 86.671875 181.550781 91.328125 180.773438 C 96.03125 179.996094 92.390625 172.117188 90.695312 170.144531 C 90.640625 170.09375 90.578125 170.074219 90.503906 170.09375 C 90.429688 170.113281 90.382812 170.160156 90.363281 170.230469 L 90.089844 171.089844 C 90.015625 171.339844 90.398438 171.4375 90.476562 171.195312 C 90.753906 170.3125 91.257812 171.554688 91.5 171.984375 C 91.894531 172.757812 92.21875 173.558594 92.46875 174.386719 C 93.050781 176.078125 94.011719 181.769531 90.425781 179.757812 C 89.257812 179.105469 89.203125 178.894531 89.210938 177.664062 C 89.246094 176.746094 89.359375 175.839844 89.542969 174.941406 C 89.8125 173.449219 90.195312 171.988281 90.683594 170.554688 C 90.765625 170.304688 90.382812 170.207031 90.300781 170.445312 Z M 90.300781 170.460938 " fill-opacity="1" fill-rule="nonzero"/><path fill="rgb(100%, 100%, 100%)" d="M 64.1875 157.710938 C 61.929688 158.039062 59.738281 158.628906 57.621094 159.484375 C 56.515625 159.929688 55.285156 160.652344 55.195312 161.839844 C 55.113281 162.898438 56.097656 163.820312 57.152344 163.96875 C 58.207031 164.113281 59.257812 163.636719 60.101562 162.988281 C 60.703125 162.5 61.265625 161.96875 61.785156 161.390625 C 62.839844 160.277344 63.925781 159.113281 64.417969 157.660156 L 63.53125 157.816406 " fill-opacity="1" fill-rule="nonzero"/><path fill="rgb(100%, 100%, 100%)" d="M 64.125 157.523438 C 62.574219 157.769531 51.652344 159.933594 55.761719 163.542969 C 58.957031 166.34375 63.613281 160.203125 64.601562 157.710938 C 64.660156 157.558594 64.484375 157.449219 64.351562 157.464844 L 63.464844 157.621094 C 63.21875 157.664062 63.320312 158.046875 63.570312 158.003906 C 64.730469 157.800781 63.015625 159.695312 62.796875 159.960938 C 62.433594 160.40625 62.027344 160.828125 61.628906 161.246094 C 60.484375 162.453125 58.867188 164.242188 57.023438 163.640625 C 55.699219 163.546875 55.347656 162.5625 55.96875 160.691406 C 56.34375 160.347656 56.765625 160.070312 57.234375 159.859375 C 57.992188 159.5 58.777344 159.207031 59.585938 158.972656 C 61.105469 158.496094 62.652344 158.136719 64.226562 157.898438 C 64.476562 157.859375 64.371094 157.476562 64.125 157.515625 Z M 64.125 157.523438 " fill-opacity="1" fill-rule="nonzero"/><path fill="rgb(100%, 100%, 100%)" d="M 57.75 139.609375 C 55.664062 138.675781 53.503906 138 51.257812 137.585938 C 50.085938 137.371094 48.65625 137.320312 47.941406 138.269531 C 47.304688 139.121094 47.636719 140.429688 48.4375 141.117188 C 49.238281 141.804688 50.394531 141.964844 51.453125 141.871094 C 52.222656 141.78125 52.984375 141.632812 53.730469 141.425781 C 55.21875 141.054688 56.765625 140.65625 57.949219 139.691406 L 57.117188 139.347656 " fill-opacity="1" fill-rule="nonzero"/><path fill="rgb(100%, 100%, 100%)" d="M 57.847656 139.441406 C 56.074219 138.667969 47.675781 134.941406 47.410156 139.234375 C 47.089844 144.347656 56.117188 141.257812 58.082031 139.863281 C 58.152344 139.816406 58.183594 139.753906 58.171875 139.667969 C 58.164062 139.582031 58.117188 139.527344 58.035156 139.5 L 57.199219 139.15625 C 56.953125 139.058594 56.863281 139.441406 57.097656 139.539062 C 57.785156 139.824219 57.34375 139.898438 56.777344 140.21875 C 56.070312 140.632812 55.136719 140.855469 54.339844 141.074219 C 53.753906 141.230469 53.164062 141.386719 52.566406 141.5 C 51.992188 141.628906 51.414062 141.695312 50.828125 141.695312 C 49.433594 141.886719 48.964844 141.195312 49.425781 139.617188 C 48.636719 138.074219 48.898438 137.417969 50.21875 137.660156 L 51.210938 137.773438 C 51.878906 137.882812 52.550781 138.050781 53.199219 138.222656 C 54.722656 138.625 56.203125 139.148438 57.648438 139.785156 C 57.878906 139.882812 58.082031 139.535156 57.84375 139.441406 Z M 57.847656 139.441406 " fill-opacity="1" fill-rule="nonzero"/><path fill="rgb(100%, 100%, 100%)" d="M 38.695312 118.855469 C 37.886719 114.644531 37.476562 110.140625 39.042969 106.132812 C 39.929688 103.851562 41.410156 101.847656 43.011719 100.003906 C 49.691406 92.355469 58.777344 87.042969 68.402344 83.789062 C 78.03125 80.535156 88.234375 79.25 98.386719 78.71875 C 101.984375 78.535156 105.710938 78.472656 109.023438 79.878906 C 98.585938 75.886719 87.050781 75.023438 76.019531 76.796875 C 64.988281 78.570312 54.429688 82.914062 45 88.890625 C 39.769531 92.207031 34.476562 96.617188 33.476562 102.722656 C 32.890625 106.28125 33.871094 109.902344 34.914062 113.347656 C 35.5625 115.496094 36.707031 118.027344 38.945312 118.195312 " fill-opacity="1" fill-rule="nonzero"/><path fill="rgb(100%, 100%, 100%)" d="M 38.878906 118.804688 C 38.195312 115.089844 37.738281 111.191406 38.796875 107.488281 C 39.871094 103.722656 42.519531 100.648438 45.230469 97.921875 C 49.824219 93.300781 55.332031 89.644531 61.21875 86.882812 C 73.628906 81.070312 88.351562 78.625 102 78.824219 C 103.800781 78.847656 105.519531 79.363281 107.273438 79.480469 C 108.515625 79.566406 108.4375 79.667969 107.273438 79.035156 C 106.777344 78.765625 106.015625 78.613281 105.457031 78.441406 C 102.382812 77.5 99.257812 76.804688 96.074219 76.359375 C 89.359375 75.433594 82.652344 75.515625 75.960938 76.609375 C 63.804688 78.558594 51.347656 83.59375 41.515625 91.050781 C 37.109375 94.386719 33.203125 98.875 33.09375 104.671875 C 33.03125 107.996094 33.914062 111.644531 35.15625 114.710938 C 35.875 116.492188 36.890625 118.019531 38.878906 118.386719 C 39.125 118.433594 39.234375 118.054688 38.984375 118.007812 C 34.765625 117.222656 33.65625 109.089844 33.503906 105.640625 C 33.296875 101.089844 35.453125 97.144531 38.628906 94.027344 C 44.300781 88.457031 52.21875 84.570312 59.523438 81.640625 C 75.261719 75.308594 92.929688 74.097656 108.96875 80.082031 C 109.214844 80.171875 109.308594 79.789062 109.070312 79.699219 C 105.300781 78.242188 101.378906 78.359375 97.410156 78.582031 C 93.4375 78.804688 89.511719 79.148438 85.59375 79.6875 C 77.429688 80.804688 69.34375 82.773438 61.824219 86.183594 C 54.953125 89.304688 48.546875 93.617188 43.464844 99.222656 C 41.191406 101.734375 39.144531 104.507812 38.296875 107.832031 C 37.371094 111.46875 37.835938 115.285156 38.503906 118.917969 C 38.550781 119.164062 38.933594 119.0625 38.886719 118.8125 Z M 38.878906 118.804688 " fill-opacity="1" fill-rule="nonzero"/><path fill="rgb(100%, 74.899292%, 56.079102%)" d="M 33.082031 130.214844 C 31.625 134.152344 31.109375 138.210938 31.539062 142.386719 C 31.585938 142.835938 31.664062 143.328125 32.007812 143.625 C 32.332031 143.851562 32.695312 143.957031 33.09375 143.9375 C 35.183594 144.046875 37.230469 143.785156 39.226562 143.15625 C 36.71875 142.691406 34.933594 140.371094 34.121094 137.953125 C 33.308594 135.535156 33.238281 132.949219 32.734375 130.449219 " fill-opacity="1" fill-rule="nonzero"/><path fill="rgb(100%, 74.899292%, 56.079102%)" d="M 32.886719 130.164062 C 32.125 132.277344 31.617188 134.453125 31.359375 136.683594 C 31.175781 138.371094 30.613281 141.539062 31.46875 143.125 C 32.710938 145.425781 37.347656 143.910156 39.28125 143.355469 C 39.371094 143.324219 39.417969 143.261719 39.417969 143.164062 C 39.417969 143.066406 39.371094 143.003906 39.28125 142.972656 C 33.71875 141.492188 33.753906 134.964844 32.921875 130.402344 C 32.878906 130.152344 32.496094 130.257812 32.539062 130.503906 C 33.035156 133.246094 33.113281 136.183594 34.21875 138.777344 C 34.578125 139.632812 35.054688 140.414062 35.648438 141.128906 C 36.328125 141.9375 37.421875 142.277344 38.050781 142.984375 C 38.625 143.632812 38.421875 142.886719 38.316406 143.207031 C 38.230469 143.480469 35.964844 143.648438 35.75 143.671875 C 35.140625 143.734375 34.164062 143.890625 33.535156 143.746094 C 31.964844 143.390625 31.78125 141.824219 31.605469 140.488281 C 31.167969 137.148438 32.175781 133.390625 33.273438 130.273438 C 33.355469 130.027344 32.972656 129.929688 32.886719 130.171875 Z M 32.886719 130.164062 " fill-opacity="1" fill-rule="nonzero"/><path fill="rgb(100%, 74.899292%, 56.079102%)" d="M 37.3125 169.738281 C 38.875 172.441406 40.632812 175.003906 42.597656 177.429688 C 44.558594 179.855469 46.699219 182.117188 49.015625 184.207031 C 51.332031 186.296875 53.796875 188.195312 56.414062 189.902344 C 59.027344 191.609375 61.761719 193.101562 64.609375 194.378906 C 64.113281 192.941406 62.742188 192.023438 61.472656 191.191406 C 51.847656 184.855469 43.507812 177.132812 36.460938 168.023438 C 36.683594 168.949219 37.066406 169.800781 37.613281 170.582031 C 38.160156 171.363281 38.828125 172.015625 39.621094 172.542969 " fill-opacity="1" fill-rule="nonzero"/><path fill="rgb(100%, 74.899292%, 56.079102%)" d="M 37.140625 169.835938 C 38.714844 172.539062 40.488281 175.101562 42.460938 177.53125 C 44.433594 179.957031 46.578125 182.222656 48.902344 184.316406 C 51.222656 186.414062 53.691406 188.320312 56.308594 190.035156 C 58.925781 191.75 61.660156 193.257812 64.511719 194.550781 C 64.597656 194.597656 64.679688 194.585938 64.75 194.515625 C 64.820312 194.445312 64.832031 194.367188 64.785156 194.277344 C 63.726562 191.996094 61.308594 190.878906 59.324219 189.503906 C 56.25 187.363281 53.304688 185.066406 50.484375 182.605469 C 45.378906 178.144531 40.746094 173.234375 36.585938 167.882812 C 36.460938 167.722656 36.203125 167.898438 36.253906 168.078125 C 36.789062 170.003906 37.871094 171.550781 39.5 172.714844 C 39.707031 172.867188 39.90625 172.523438 39.703125 172.371094 C 39.035156 171.875 35.257812 166.90625 37.714844 169.929688 C 38.753906 171.214844 39.824219 172.472656 40.925781 173.707031 C 43.125 176.171875 45.4375 178.527344 47.871094 180.777344 C 50.089844 182.832031 52.394531 184.785156 54.785156 186.640625 C 57.449219 188.710938 60.777344 190.371094 63.199219 192.699219 C 65.253906 194.679688 62.765625 193.308594 61.710938 192.765625 C 60.222656 192.007812 58.789062 191.179688 57.382812 190.289062 C 54.574219 188.527344 51.9375 186.546875 49.460938 184.34375 C 44.6875 180.078125 40.695312 175.175781 37.480469 169.640625 C 37.410156 169.539062 37.324219 169.519531 37.21875 169.582031 C 37.113281 169.640625 37.085938 169.726562 37.136719 169.835938 Z M 37.140625 169.835938 " fill-opacity="1" fill-rule="nonzero"/><path fill="rgb(100%, 74.899292%, 56.079102%)" d="M 82.511719 199.574219 C 86.699219 200.675781 91.167969 200.261719 95.335938 199.097656 C 99.507812 197.9375 103.429688 196.050781 107.328125 194.171875 C 102.484375 193.707031 98.234375 197.1875 93.566406 198.554688 C 89.792969 199.660156 85.769531 199.363281 81.851562 199.050781 C 81.925781 199.207031 82.035156 199.324219 82.183594 199.402344 C 82.332031 199.484375 82.492188 199.511719 82.660156 199.484375 " fill-opacity="1" fill-rule="nonzero"/><path fill="rgb(100%, 74.899292%, 56.079102%)" d="M 82.460938 199.765625 C 91.296875 201.851562 99.617188 198.097656 107.429688 194.34375 C 107.617188 194.25 107.511719 193.984375 107.328125 193.972656 C 103.574219 193.785156 100.429688 195.460938 97.105469 196.964844 C 92.078125 199.226562 87.253906 199.273438 81.851562 198.855469 C 81.765625 198.859375 81.707031 198.898438 81.671875 198.980469 C 81.640625 199.0625 81.652344 199.132812 81.714844 199.195312 C 82.152344 199.660156 81.976562 199.570312 82.609375 199.691406 C 82.855469 199.734375 82.964844 199.355469 82.710938 199.308594 C 86.390625 199.925781 90.03125 199.742188 93.628906 198.757812 C 97.234375 197.722656 100.382812 195.433594 104.050781 194.621094 C 103.96875 194.640625 106.535156 194.09375 106.332031 194.445312 C 106.042969 194.964844 104.246094 195.4375 103.621094 195.726562 C 101.226562 196.863281 98.769531 197.832031 96.246094 198.636719 C 91.78125 200.003906 87.160156 200.476562 82.574219 199.394531 C 82.324219 199.335938 82.21875 199.71875 82.464844 199.777344 Z M 82.460938 199.765625 " fill-opacity="1" fill-rule="nonzero"/><path fill="rgb(26.669312%, 18.818665%, 12.159729%)" d="M 137.71875 194.632812 L 135.46875 192.402344 C 135.480469 192.402344 136.558594 191.3125 136.992188 190.835938 C 148.425781 178.476562 154.71875 162.101562 154.71875 144.734375 C 154.71875 107.332031 124.242188 76.914062 86.777344 76.914062 C 66.195312 76.914062 50.957031 83.066406 38.824219 96.28125 L 36.484375 94.140625 C 49.082031 80.414062 65.535156 73.742188 86.777344 73.742188 C 125.984375 73.742188 157.894531 105.589844 157.894531 144.734375 C 157.894531 162.910156 151.304688 180.042969 139.335938 192.972656 C 138.863281 193.484375 137.765625 194.585938 137.71875 194.632812 Z M 137.71875 194.632812 " fill-opacity="1" fill-rule="nonzero"/><path fill="rgb(26.669312%, 18.818665%, 12.159729%)" d="M 81.164062 65.441406 C 81.675781 60.484375 79.792969 55.101562 78.125 50.5 C 76.398438 45.75 74.175781 41.160156 71.300781 36.996094 C 65.714844 28.910156 57.757812 22.527344 48.238281 19.726562 C 46.078125 19.097656 43.878906 18.679688 41.636719 18.464844 C 39.460938 18.246094 36.511719 17.890625 34.394531 18.621094 C 30.917969 19.824219 32.625 26.363281 33.089844 28.988281 C 34.828125 38.671875 40.285156 47.621094 47.699219 54.039062 C 56.363281 61.546875 67.328125 65.816406 78.601562 67.4375 C 80.601562 67.722656 81.464844 64.667969 79.445312 64.378906 C 62.171875 61.910156 45.15625 52.636719 38.359375 35.800781 C 36.691406 31.742188 35.789062 27.523438 35.652344 23.140625 C 35.652344 22.863281 35.535156 21.578125 35.652344 21.457031 C 35.632812 21.476562 36.585938 21.542969 36.589844 21.539062 C 37.503906 21.355469 38.597656 21.460938 39.535156 21.492188 C 41.921875 21.578125 44.269531 21.933594 46.578125 22.558594 C 55.171875 24.851562 62.585938 30.414062 67.796875 37.542969 C 70.703125 41.554688 73.019531 45.882812 74.746094 50.523438 C 76.464844 55.082031 78.480469 60.519531 77.972656 65.441406 C 77.765625 67.464844 80.949219 67.449219 81.148438 65.441406 Z M 81.164062 65.441406 " fill-opacity="1" fill-rule="nonzero"/><path fill="rgb(26.669312%, 18.818665%, 12.159729%)" d="M 92.492188 65.886719 C 92.132812 61.640625 93.980469 56.789062 95.640625 52.917969 C 97.296875 49.050781 99.496094 45.414062 102.316406 42.3125 C 105.09375 39.226562 108.378906 36.832031 112.167969 35.128906 C 114.09375 34.277344 116.09375 33.671875 118.167969 33.308594 C 119.261719 33.121094 120.363281 33.019531 121.472656 33 C 121.664062 33 124.261719 32.957031 123.761719 32.59375 C 124.492188 33.128906 123.277344 38.238281 123.140625 38.84375 C 122.675781 40.910156 121.988281 42.898438 121.078125 44.8125 C 119.289062 48.558594 116.859375 51.828125 113.792969 54.628906 C 107.484375 60.40625 99.273438 63.488281 90.902344 64.707031 C 88.886719 65 89.742188 68.058594 91.742188 67.765625 C 106.933594 65.550781 121.664062 56.398438 125.894531 40.910156 C 126.554688 38.496094 127.992188 33.492188 126.585938 31.175781 C 125.140625 28.800781 119.96875 29.828125 117.734375 30.183594 C 110.207031 31.40625 103.394531 35.835938 98.679688 41.71875 C 96.058594 45.003906 93.964844 48.597656 92.398438 52.496094 C 90.734375 56.570312 88.933594 61.414062 89.316406 65.871094 C 89.488281 67.890625 92.667969 67.910156 92.492188 65.871094 Z M 92.492188 65.886719 " fill-opacity="1" fill-rule="nonzero"/><path fill="rgb(26.669312%, 18.818665%, 12.159729%)" d="M 36.53125 94.082031 C 31.75 98.816406 31.742188 106.667969 33.253906 112.816406 C 33.996094 115.847656 35.386719 118.902344 37.855469 120.910156 C 40.75 123.273438 44.347656 123.402344 47.910156 122.949219 C 51.632812 122.476562 57.125 121.273438 59.058594 125.597656 C 60.492188 128.792969 59.988281 132.441406 62.023438 135.464844 C 63.472656 137.625 65.867188 139.234375 68.535156 139.253906 C 71.785156 139.277344 72.875 137.128906 74.683594 134.894531 C 79.03125 129.527344 86.167969 127.894531 92.550781 130.371094 C 99.042969 132.894531 103.03125 139.675781 102.269531 146.558594 C 101.976562 149.222656 101.007812 151.929688 99.382812 154.074219 C 98.597656 155.109375 97.808594 155.703125 97.316406 156.941406 C 96.699219 158.480469 96.269531 160.074219 96.035156 161.714844 C 95.601562 164.859375 95.988281 168.15625 98.046875 170.691406 C 100.226562 173.375 103.640625 174.246094 106.933594 174.613281 C 111.097656 175.078125 119.589844 175.140625 118.214844 181.570312 C 117.398438 185.367188 117.167969 188.800781 119.324219 192.265625 C 123.351562 198.742188 132.125 199.515625 137.71875 194.636719 C 139.257812 193.289062 137.003906 191.054688 135.472656 192.390625 C 129.167969 197.890625 119.265625 192.492188 120.816406 184.160156 C 121.402344 181.019531 122.1875 178.523438 119.96875 175.785156 C 117.984375 173.351562 115.054688 172.316406 112.027344 171.917969 C 108.375 171.421875 103.527344 171.933594 100.75 168.984375 C 98.269531 166.339844 98.8125 161.972656 99.984375 158.828125 C 100.8125 156.601562 102.832031 154.898438 103.828125 152.664062 C 104.824219 150.429688 105.386719 148.085938 105.507812 145.640625 C 106.097656 134 95.507812 124.742188 84.070312 126.183594 C 81.324219 126.515625 78.796875 127.445312 76.492188 128.972656 C 75.382812 129.710938 74.367188 130.558594 73.441406 131.511719 C 72.335938 132.660156 71.589844 134.371094 70.429688 135.398438 C 67.660156 137.84375 64.410156 133.945312 63.667969 131.523438 C 62.769531 128.578125 62.953125 125.332031 61.089844 122.726562 C 59.179688 120.058594 55.898438 119.210938 52.761719 119.257812 C 48.511719 119.308594 43.46875 121.464844 39.796875 118.402344 C 36.890625 115.976562 35.988281 111.675781 35.703125 108.082031 C 35.382812 103.945312 35.675781 99.410156 38.777344 96.324219 C 40.226562 94.882812 37.980469 92.640625 36.53125 94.082031 Z M 36.53125 94.082031 " fill-opacity="1" fill-rule="nonzero"/><path fill="rgb(26.669312%, 18.818665%, 12.159729%)" d="M 95.375 161.410156 C 92.253906 164.191406 87.554688 162.125 84.707031 165.535156 C 82.1875 168.554688 81.558594 173.414062 80.488281 177.09375 C 79.066406 181.96875 77.679688 186.851562 76.335938 191.746094 C 75.472656 194.882812 72.695312 200.941406 74.65625 204.128906 C 76.394531 206.96875 81.671875 207.101562 84.527344 207.113281 C 89.09375 207.113281 93.632812 206.765625 98.042969 205.542969 C 106.726562 203.125 115.460938 200.269531 123.089844 195.347656 C 124.800781 194.242188 123.210938 191.496094 121.488281 192.609375 C 114.820312 196.910156 107.375 199.503906 99.804688 201.730469 C 95.921875 202.875 92.214844 203.660156 88.144531 203.839844 C 85.546875 203.953125 77.96875 204.84375 77.300781 201.578125 C 76.933594 199.785156 78.242188 196.785156 78.71875 195.03125 C 79.300781 192.910156 79.886719 190.792969 80.476562 188.671875 C 81.570312 184.761719 82.6875 180.859375 83.828125 176.960938 C 84.675781 174.054688 85.355469 167.652344 88.683594 166.5 C 90.273438 165.953125 92.136719 166.332031 93.78125 165.875 C 95.253906 165.464844 96.480469 164.652344 97.609375 163.644531 C 99.140625 162.285156 96.886719 160.046875 95.363281 161.414062 Z M 95.375 161.410156 " fill-opacity="1" fill-rule="nonzero"/><path fill="rgb(26.669312%, 18.818665%, 12.159729%)" d="M 72.992188 157.769531 C 71.089844 155.558594 70.390625 152.703125 68.578125 150.535156 C 67.035156 148.6875 64.605469 148.492188 62.34375 148.695312 C 59.4375 148.941406 56.730469 150.046875 53.921875 150.753906 C 50.613281 151.578125 47.195312 151.824219 43.859375 152.53125 C 40.828125 153.171875 37.886719 154.144531 34.960938 155.167969 C 32.363281 156.074219 29.707031 156.832031 28.335938 159.425781 C 25.972656 163.921875 28.863281 169.480469 30.9375 173.527344 C 35.871094 183.136719 43.640625 191.113281 52.578125 197.085938 C 56.640625 199.8125 62.007812 203.464844 67.078125 201.257812 C 72.1875 199.027344 73.417969 193.085938 74.667969 188.257812 L 77.796875 176.148438 C 78.609375 173.003906 80.109375 169.414062 79.929688 166.121094 C 79.792969 163.539062 78.191406 161.984375 76.171875 160.605469 C 73.097656 158.496094 70.871094 156.128906 69.699219 152.507812 C 69.070312 150.578125 66.003906 151.402344 66.636719 153.351562 C 67.214844 155.210938 68.082031 156.929688 69.230469 158.503906 C 70.378906 160.074219 71.753906 161.421875 73.347656 162.542969 C 74.195312 163.136719 75.273438 163.628906 75.957031 164.421875 C 77.070312 165.714844 76.742188 167.292969 76.40625 168.808594 C 75.769531 171.664062 74.945312 174.488281 74.210938 177.320312 C 72.871094 182.523438 71.871094 187.972656 70.046875 193.023438 C 69.316406 195.046875 68.132812 197.207031 66.128906 198.226562 C 63.175781 199.710938 59.886719 197.863281 57.347656 196.355469 C 49.628906 191.773438 42.664062 185.664062 37.515625 178.292969 C 34.933594 174.601562 32.53125 170.46875 31.191406 166.15625 C 30.199219 162.972656 30.546875 160.183594 33.957031 158.890625 C 36.386719 157.96875 38.878906 157.140625 41.382812 156.433594 C 47.027344 154.835938 52.863281 154.351562 58.503906 152.730469 C 61.269531 151.933594 64.957031 150.703125 66.726562 153.605469 C 68.074219 155.835938 69.003906 158.011719 70.730469 160.015625 C 72.066406 161.566406 74.300781 159.316406 72.964844 157.785156 Z M 72.992188 157.769531 " fill-opacity="1" fill-rule="nonzero"/><path fill="rgb(26.669312%, 18.818665%, 12.159729%)" d="M 66.019531 137.730469 C 65.769531 141.097656 62.246094 142.269531 59.445312 142.933594 C 56.285156 143.675781 53.101562 144.320312 49.929688 145.015625 L 40.136719 147.160156 C 37.035156 147.835938 33.484375 149.195312 30.320312 149.304688 C 29.328125 149.339844 28.851562 149.453125 28.277344 148.296875 C 27.921875 147.585938 27.90625 146.5625 27.839844 145.785156 C 27.726562 144.300781 27.699219 142.816406 27.75 141.328125 C 27.824219 138.324219 28.160156 135.351562 28.769531 132.410156 C 30.039062 126.335938 32.320312 120.664062 35.609375 115.394531 C 36.6875 113.660156 33.941406 112.0625 32.878906 113.796875 C 28.792969 120.351562 26.203125 127.453125 25.109375 135.097656 C 24.5625 138.90625 22.5 152.246094 28.8125 152.710938 C 30.46875 152.832031 32.4375 152.082031 34.046875 151.71875 L 40.464844 150.3125 L 53.863281 147.382812 C 59.722656 146.101562 68.636719 145.351562 69.195312 137.722656 C 69.34375 135.6875 66.167969 135.695312 66.019531 137.722656 Z M 66.019531 137.730469 " fill-opacity="1" fill-rule="nonzero"/><path fill="rgb(100%, 44.709778%, 52.159119%)" d="M 62.757812 98.894531 L 67.890625 91.484375 C 69.054688 89.800781 66.300781 88.214844 65.160156 89.886719 L 60.027344 97.292969 C 58.863281 98.976562 61.613281 100.5625 62.769531 98.894531 Z M 62.757812 98.894531 " fill-opacity="1" fill-rule="nonzero"/><path fill="rgb(100%, 44.709778%, 52.159119%)" d="M 132.195312 163.660156 C 132.464844 165.351562 132.824219 167.027344 133.269531 168.683594 C 133.625 169.980469 134.636719 171.722656 134.53125 173.019531 C 134.527344 173.300781 134.59375 173.566406 134.734375 173.8125 C 134.875 174.058594 135.070312 174.25 135.316406 174.386719 L 135.425781 174.441406 C 136.144531 174.78125 136.746094 174.664062 137.351562 174.191406 L 137.460938 174.109375 C 138.324219 173.4375 137.894531 172.125 137.140625 171.617188 L 137.089844 171.585938 C 135.382812 170.453125 133.789062 173.195312 135.488281 174.320312 L 135.535156 174.355469 L 135.214844 171.863281 L 135.105469 171.949219 L 137.03125 171.703125 L 136.921875 171.652344 L 137.707031 173.019531 C 137.828125 171.53125 136.941406 169.976562 136.53125 168.558594 C 135.992188 166.675781 135.566406 164.761719 135.257812 162.828125 C 134.925781 160.820312 131.863281 161.671875 132.195312 163.671875 Z M 132.195312 163.660156 " fill-opacity="1" fill-rule="nonzero"/><path fill="rgb(100%, 44.709778%, 52.159119%)" d="M 132.523438 118.046875 L 136.492188 119.917969 C 137.269531 120.285156 138.207031 120.132812 138.664062 119.351562 C 139.070312 118.660156 138.875 117.550781 138.097656 117.179688 L 134.125 115.308594 C 133.351562 114.941406 132.414062 115.09375 131.957031 115.875 C 131.550781 116.566406 131.746094 117.675781 132.523438 118.046875 Z M 132.523438 118.046875 " fill-opacity="1" fill-rule="nonzero"/><path fill="rgb(100%, 44.709778%, 52.159119%)" d="M 92.015625 112.785156 C 93.160156 112.703125 94.144531 112.269531 94.976562 111.484375 C 95.125 111.335938 95.238281 111.164062 95.316406 110.96875 C 95.398438 110.773438 95.4375 110.574219 95.4375 110.363281 C 95.4375 110.152344 95.398438 109.953125 95.316406 109.757812 C 95.238281 109.5625 95.125 109.390625 94.976562 109.242188 C 94.828125 109.097656 94.652344 108.988281 94.460938 108.910156 C 94.265625 108.832031 94.0625 108.792969 93.855469 108.792969 C 93.644531 108.792969 93.445312 108.832031 93.25 108.910156 C 93.054688 108.988281 92.882812 109.097656 92.730469 109.242188 L 92.5625 109.394531 C 92.726562 109.269531 92.742188 109.253906 92.609375 109.351562 L 92.261719 109.550781 C 92.152344 109.597656 92.191406 109.582031 92.375 109.5 C 92.304688 109.527344 92.230469 109.550781 92.160156 109.570312 C 92.054688 109.597656 91.558594 109.660156 92.015625 109.613281 C 91.191406 109.695312 90.390625 110.285156 90.429688 111.199219 C 90.464844 111.988281 91.132812 112.867188 92.015625 112.785156 Z M 92.015625 112.785156 " fill-opacity="1" fill-rule="nonzero"/><path fill="rgb(100%, 98.039246%, 77.249146%)" d="M 92.007812 91.613281 C 93.828125 93.054688 95.773438 94.292969 97.851562 95.328125 C 99.675781 96.230469 101.289062 93.496094 99.453125 92.59375 C 97.605469 91.695312 95.871094 90.625 94.242188 89.371094 C 93.558594 88.839844 92.664062 88.722656 91.996094 89.371094 C 91.441406 89.914062 91.320312 91.085938 91.996094 91.613281 Z M 92.007812 91.613281 " fill-opacity="1" fill-rule="nonzero"/><path fill="rgb(100%, 98.039246%, 77.249146%)" d="M 133.9375 142.046875 L 137.625 143.402344 C 138.429688 143.699219 139.359375 143.070312 139.578125 142.296875 C 139.828125 141.410156 139.277344 140.644531 138.46875 140.347656 L 134.78125 138.980469 C 133.976562 138.683594 133.042969 139.3125 132.828125 140.089844 C 132.578125 140.976562 133.125 141.742188 133.9375 142.039062 Z M 133.9375 142.046875 " fill-opacity="1" fill-rule="nonzero"/><path fill="rgb(100%, 98.039246%, 77.249146%)" d="M 120.867188 96.636719 L 123.777344 96.636719 C 125.820312 96.636719 125.824219 93.464844 123.777344 93.464844 L 120.867188 93.464844 C 118.820312 93.464844 118.820312 96.636719 120.867188 96.636719 Z M 120.867188 96.636719 " fill-opacity="1" fill-rule="nonzero"/><path fill="rgb(100%, 98.039246%, 77.249146%)" d="M 116.269531 136.363281 L 117.332031 137.679688 C 117.644531 137.988281 118.019531 138.140625 118.457031 138.140625 C 118.894531 138.136719 119.269531 137.984375 119.582031 137.679688 C 119.890625 137.367188 120.042969 136.996094 120.042969 136.558594 C 120.023438 136.128906 119.867188 135.753906 119.582031 135.433594 L 118.515625 134.121094 C 118.203125 133.8125 117.828125 133.65625 117.390625 133.65625 C 116.953125 133.660156 116.578125 133.816406 116.269531 134.121094 C 115.957031 134.429688 115.804688 134.804688 115.800781 135.242188 C 115.824219 135.671875 115.980469 136.042969 116.269531 136.363281 Z M 116.269531 136.363281 " fill-opacity="1" fill-rule="nonzero"/><path fill="rgb(100%, 61.959839%, 28.62854%)" d="M 72.289062 109.195312 L 73.421875 113.472656 C 73.941406 115.457031 77.007812 114.609375 76.484375 112.632812 L 75.355469 108.355469 C 74.832031 106.371094 71.769531 107.214844 72.292969 109.195312 Z M 72.289062 109.195312 " fill-opacity="1" fill-rule="nonzero"/><path fill="rgb(100%, 61.959839%, 28.62854%)" d="M 112.472656 120.28125 C 113.082031 117.433594 113.851562 114.625 114.777344 111.859375 C 115.425781 109.921875 112.359375 109.089844 111.714844 111.019531 C 110.789062 113.777344 110.019531 116.582031 109.410156 119.429688 C 108.984375 121.410156 112.042969 122.269531 112.472656 120.269531 Z M 112.472656 120.28125 " fill-opacity="1" fill-rule="nonzero"/><path fill="rgb(100%, 61.959839%, 28.62854%)" d="M 116.179688 152.761719 L 115.554688 157.238281 C 115.433594 158.085938 115.761719 158.941406 116.664062 159.1875 C 117.40625 159.390625 118.496094 158.941406 118.617188 158.082031 L 119.242188 153.601562 C 119.363281 152.757812 119.039062 151.902344 118.132812 151.652344 C 117.390625 151.449219 116.300781 151.902344 116.179688 152.761719 Z M 116.179688 152.761719 " fill-opacity="1" fill-rule="nonzero"/><path fill="rgb(100%, 61.959839%, 28.62854%)" d="M 45.714844 108.265625 C 45.582031 109.570312 45.671875 110.855469 45.988281 112.125 C 46.46875 114.109375 49.53125 113.269531 49.054688 111.285156 C 48.820312 110.289062 48.765625 109.28125 48.890625 108.265625 C 48.984375 107.414062 48.09375 106.679688 47.300781 106.679688 C 46.367188 106.679688 45.8125 107.414062 45.714844 108.265625 Z M 45.714844 108.265625 " fill-opacity="1" fill-rule="nonzero"/><path fill="rgb(100%, 61.959839%, 28.62854%)" d="M 144.875 154.796875 L 146.203125 157.175781 C 146.3125 157.355469 146.449219 157.507812 146.617188 157.632812 C 146.785156 157.761719 146.96875 157.847656 147.171875 157.902344 C 147.375 157.953125 147.582031 157.964844 147.789062 157.9375 C 147.996094 157.910156 148.191406 157.84375 148.371094 157.734375 C 148.554688 157.628906 148.707031 157.496094 148.835938 157.328125 C 148.960938 157.160156 149.050781 156.976562 149.105469 156.773438 C 149.160156 156.570312 149.171875 156.367188 149.144531 156.160156 C 149.117188 155.949219 149.050781 155.757812 148.945312 155.574219 L 147.617188 153.195312 C 147.511719 153.015625 147.375 152.863281 147.207031 152.738281 C 147.039062 152.613281 146.851562 152.523438 146.648438 152.472656 C 146.445312 152.417969 146.242188 152.40625 146.035156 152.433594 C 145.824219 152.464844 145.632812 152.53125 145.449219 152.636719 C 145.269531 152.742188 145.117188 152.878906 144.988281 153.046875 C 144.859375 153.210938 144.769531 153.394531 144.71875 153.597656 C 144.664062 153.800781 144.648438 154.007812 144.679688 154.214844 C 144.707031 154.421875 144.773438 154.617188 144.875 154.796875 Z M 144.875 154.796875 " fill-opacity="1" fill-rule="nonzero"/></svg>